<?xml version="1.0" standalone="no"?>
<!DOCTYPE svg PUBLIC "-//W3C//DTD SVG 20010904//EN"
 "http://www.w3.org/TR/2001/REC-SVG-20010904/DTD/svg10.dtd">
<svg version="1.0" xmlns="http://www.w3.org/2000/svg"
 width="2000.000000pt" height="2000.000000pt" viewBox="0 0 2000.000000 2000.000000"
 preserveAspectRatio="xMidYMid meet">
<metadata>
Created by potrace 1.14, written by Peter Selinger 2001-2017
</metadata>
<g transform="translate(0.000000,2000.000000) scale(0.100000,-0.100000)"
fill="#000000" stroke="none">
<path d="M8611 18664 c-178 -13 -326 -25 -328 -27 -2 -2 1 -125 7 -273 5 -148
10 -368 10 -489 l0 -220 98 6 c53 4 151 10 217 14 66 4 192 12 280 19 l160 11
3 53 c3 50 2 52 -20 47 -26 -5 -319 -31 -474 -41 l-101 -7 -6 114 c-11 178 -9
249 6 249 31 -1 485 32 505 36 19 4 22 11 22 49 l0 46 -62 -6 c-77 -8 -473
-34 -474 -31 -1 0 -4 78 -8 172 l-7 171 58 6 c32 3 167 12 301 18 l242 13 0
48 0 48 -52 -1 c-29 -1 -199 -12 -377 -25z"/>
<path d="M9621 18683 c2 -6 78 -137 168 -292 l163 -281 -7 -58 c-3 -31 -18
-126 -32 -210 -14 -84 -23 -155 -21 -157 2 -2 41 -7 86 -11 l82 -7 1 39 c0 21
10 116 22 211 l22 172 240 256 c132 141 242 261 243 266 2 5 -14 9 -36 9 -21
0 -59 3 -83 6 l-44 6 -59 -69 c-32 -37 -117 -132 -188 -211 l-130 -143 -62
113 c-205 373 -196 358 -230 358 -17 0 -55 3 -85 7 -35 4 -52 3 -50 -4z"/>
<path d="M11185 18496 c-2 -6 -34 -132 -70 -280 -36 -148 -91 -351 -121 -450
-31 -100 -58 -189 -61 -198 -4 -12 0 -18 11 -18 15 0 649 -134 688 -146 13 -4
19 4 27 33 16 57 15 60 -31 67 -68 10 -499 104 -505 109 -4 5 81 329 182 696
25 90 45 164 43 166 -2 1 -38 9 -81 17 -57 11 -80 12 -82 4z"/>
<path d="M6207 18206 c-436 -143 -404 -126 -373 -197 l11 -26 135 48 c192 67
474 159 477 155 3 -3 -261 -579 -372 -811 -37 -77 -67 -149 -67 -161 -1 -31
22 -94 34 -94 5 0 190 59 409 131 432 141 411 130 388 198 -9 24 -16 31 -28
25 -139 -57 -621 -214 -621 -201 0 5 41 98 91 206 50 108 118 255 151 326 33
72 78 168 100 215 103 218 100 209 87 262 -6 26 -14 50 -18 52 -3 1 -185 -56
-404 -128z"/>
<path d="M12817 18295 c-15 -32 -22 -65 -14 -65 2 0 31 -11 65 -24 l62 -25 20
39 c11 22 20 44 20 50 0 10 -70 45 -114 56 -18 4 -25 -2 -39 -31z"/>
<path d="M13064 18185 c-9 -25 -15 -47 -13 -48 11 -9 114 -47 125 -47 13 0 44
60 44 85 0 11 -102 55 -128 55 -6 0 -18 -20 -28 -45z"/>
<path d="M12443 18078 c-22 -51 -87 -196 -144 -323 -92 -204 -104 -238 -107
-298 -4 -57 0 -75 22 -121 40 -81 127 -156 249 -216 157 -76 260 -103 392
-104 102 -1 114 1 168 28 80 39 120 94 202 277 37 85 104 228 147 318 43 90
78 165 78 166 0 6 -151 58 -155 53 -2 -2 -43 -91 -90 -197 -124 -280 -210
-444 -250 -480 -37 -32 -118 -61 -170 -61 -49 0 -177 36 -237 66 -95 48 -145
91 -174 150 -49 100 -30 162 180 598 47 98 86 180 86 181 0 5 -134 55 -146 55
-6 0 -29 -42 -51 -92z"/>
<path d="M5068 17774 c-38 -19 -68 -36 -68 -38 0 -2 23 -53 51 -112 133 -284
226 -508 235 -564 4 -23 -1 -60 -11 -96 -24 -82 -102 -157 -227 -218 -158 -78
-258 -79 -343 -4 -36 32 -59 67 -104 162 -65 135 -211 471 -211 486 0 23 -25
18 -90 -16 -39 -20 -69 -42 -66 -48 2 -6 50 -110 105 -231 209 -453 209 -455
292 -500 49 -26 63 -29 144 -29 109 0 216 35 359 114 181 101 282 209 306 327
17 78 3 136 -68 290 -32 71 -96 215 -142 321 -46 105 -86 192 -89 192 -4 -1
-36 -17 -73 -36z"/>
<path d="M14097 17438 c-8 -13 -59 -95 -112 -183 -121 -198 -180 -290 -307
-474 -82 -118 -97 -146 -86 -156 16 -15 607 -355 616 -355 7 0 52 65 52 74 0
3 -35 24 -77 47 -72 39 -404 229 -411 235 -4 2 116 188 358 557 138 211 135
192 38 246 l-57 32 -14 -23z"/>
<path d="M3563 16912 l-71 -55 -12 -86 c-6 -47 -29 -194 -51 -325 -21 -132
-37 -241 -35 -244 2 -2 91 -17 198 -33 106 -17 263 -43 348 -60 l155 -29 50
35 c28 19 64 46 80 59 l30 24 -25 6 c-14 3 -176 26 -360 52 -184 25 -338 48
-343 51 -4 2 -5 7 -3 11 2 4 18 86 35 182 18 96 43 237 57 313 14 76 24 141
22 146 -2 4 -35 -17 -75 -47z"/>
<path d="M3044 16522 l-61 -48 110 -155 c108 -151 434 -634 440 -653 4 -12
132 83 131 98 -1 6 -54 88 -119 181 -65 94 -188 272 -272 398 -85 125 -157
227 -161 227 -4 0 -35 -22 -68 -48z"/>
<path d="M15927 16052 c-45 -43 -157 -147 -249 -231 -192 -174 -224 -210 -239
-266 -18 -66 -5 -173 30 -242 81 -161 286 -355 440 -414 79 -31 189 -31 251 1
57 29 68 38 193 152 111 103 275 249 350 313 l47 40 -59 59 -59 59 -164 -150
c-229 -212 -346 -310 -396 -334 -107 -52 -232 -10 -362 120 -86 87 -128 158
-137 231 -5 43 -1 59 26 114 33 67 114 147 424 416 l108 93 -58 59 c-31 32
-59 58 -61 58 -1 0 -40 -35 -85 -78z"/>
<path d="M16350 16095 l-34 -35 51 -52 51 -51 41 34 42 33 -53 53 c-29 29 -55
53 -58 53 -3 0 -21 -16 -40 -35z"/>
<path d="M16540 15905 l-34 -35 49 -50 c27 -28 53 -50 57 -50 5 0 25 15 46 34
l37 35 -50 50 c-27 28 -54 51 -60 51 -6 0 -26 -16 -45 -35z"/>
<path d="M2303 15786 c-117 -38 -177 -77 -292 -189 -169 -166 -251 -333 -251
-514 0 -141 49 -251 159 -356 113 -108 261 -150 410 -117 218 47 491 313 566
553 45 142 28 299 -45 409 -37 56 -127 144 -178 176 -104 63 -245 78 -369 38z
m208 -135 c111 -43 220 -155 260 -267 29 -82 23 -205 -14 -287 -54 -120 -188
-260 -302 -316 -162 -80 -311 -54 -441 76 -143 143 -165 343 -56 522 77 127
199 236 306 273 70 24 182 23 247 -1z"/>
<path d="M17150 14763 c-162 -109 -446 -290 -592 -378 -82 -49 -148 -93 -148
-98 0 -7 26 -47 77 -116 1 -2 78 46 170 106 326 215 528 341 531 332 2 -5 -15
-71 -37 -147 -22 -75 -70 -243 -106 -372 -36 -129 -84 -294 -106 -367 l-41
-131 57 -81 c31 -45 61 -81 65 -81 5 0 56 31 112 68 155 103 416 268 573 362
77 46 142 85 144 87 4 3 -70 112 -81 119 -4 2 -71 -38 -150 -89 -224 -147
-539 -348 -556 -355 -11 -4 -14 -1 -10 9 7 19 96 320 151 514 61 214 104 356
131 436 l23 67 -54 78 c-29 43 -57 82 -61 86 -4 4 -46 -18 -92 -49z"/>
<path d="M9967 14685 c-141 -39 -246 -124 -307 -249 -93 -190 -73 -400 56
-568 l48 -62 13 30 c12 29 13 28 18 -12 1 -12 6 -34 10 -50 5 -16 9 -64 9
-106 1 -70 4 -79 29 -106 24 -25 27 -34 21 -71 -4 -28 -16 -49 -34 -65 -32
-26 -50 -57 -50 -84 0 -10 -9 -27 -20 -37 -20 -18 -21 -18 -43 3 -44 41 -69
38 -126 -12 -28 -25 -54 -46 -57 -46 -4 0 -34 7 -68 16 -73 19 -152 26 -411
37 -110 5 -144 15 -332 99 -99 44 -113 53 -113 75 0 39 -39 68 -107 82 -41 8
-81 24 -115 48 -76 52 -201 134 -249 163 -22 14 -66 49 -97 78 -31 30 -73 66
-92 80 -19 15 -55 46 -79 69 -41 39 -47 41 -62 27 -12 -11 -19 -12 -24 -4 -4
6 -13 9 -21 6 -8 -3 -45 16 -82 43 -37 26 -96 65 -132 87 -36 21 -103 66 -150
100 -100 72 -274 166 -424 229 -59 25 -110 45 -112 45 -2 0 -4 -11 -4 -25 0
-19 11 -31 53 -54 133 -74 171 -97 208 -129 55 -47 52 -62 -15 -62 -30 0 -58
-4 -61 -10 -3 -5 -6 -35 -6 -66 -1 -55 0 -58 50 -108 37 -37 49 -56 45 -71 -4
-15 4 -27 27 -44 30 -22 36 -23 77 -12 39 10 48 9 77 -9 25 -15 50 -20 107
-20 66 0 80 -3 119 -29 24 -16 56 -43 71 -58 l28 -29 -40 -78 c-22 -43 -40
-86 -40 -96 0 -10 15 -29 33 -41 17 -12 57 -45 88 -73 55 -51 141 -123 397
-334 141 -116 224 -166 302 -180 54 -11 116 -37 315 -132 191 -91 299 -136
374 -156 89 -22 248 -99 256 -123 4 -12 -4 -42 -20 -75 -26 -56 -38 -133 -38
-242 l0 -61 -64 -34 c-35 -19 -75 -40 -90 -48 -14 -7 -77 -24 -139 -36 -73
-15 -124 -31 -141 -44 -15 -12 -34 -19 -44 -16 -10 3 -45 -8 -78 -25 -33 -16
-66 -30 -73 -30 -20 0 -138 -78 -144 -95 -4 -9 2 -25 11 -35 10 -11 16 -22 14
-24 -17 -15 -71 -35 -83 -30 -8 3 -34 -6 -58 -19 -24 -14 -72 -37 -108 -52
l-64 -27 -17 21 c-10 12 -25 56 -35 99 -9 42 -20 81 -25 87 -5 5 -9 37 -9 72
0 49 -7 77 -30 126 -27 58 -80 244 -80 282 0 8 6 15 14 15 16 0 47 -36 81 -95
20 -34 25 -37 31 -22 12 32 -26 149 -58 177 -15 13 -28 30 -28 36 0 7 -11 25
-24 41 -32 38 -50 77 -76 157 -15 45 -51 110 -107 194 -118 175 -177 237 -279
293 -46 25 -104 66 -129 91 -40 41 -45 51 -45 90 0 36 -8 55 -45 106 -25 34
-49 62 -54 62 -5 0 -17 3 -27 7 -14 5 -16 2 -12 -20 7 -38 -9 -33 -65 18 -31
28 -45 49 -41 59 5 12 0 14 -29 9 -35 -5 -51 6 -52 37 0 8 -13 21 -30 29 -16
9 -46 25 -65 38 -19 12 -57 25 -83 28 -34 5 -56 16 -75 35 -41 43 -116 62
-217 57 l-85 -4 -34 51 c-18 28 -79 128 -135 223 -56 95 -114 182 -129 193
l-27 22 -3 -169 c-3 -162 -2 -171 24 -236 14 -37 24 -71 21 -74 -4 -3 -17 -3
-30 0 -16 5 -36 30 -68 89 -25 46 -51 98 -58 116 -8 17 -17 32 -22 32 -11 0
-12 8 6 -94 18 -105 22 -169 9 -173 -5 -2 -32 -18 -59 -36 -34 -22 -51 -40
-53 -57 -5 -32 -30 -60 -53 -60 -36 0 -200 -164 -229 -227 -23 -53 -245 -278
-350 -356 -89 -66 -226 -137 -266 -137 -16 -1 -43 -9 -61 -18 -17 -9 -100 -51
-185 -93 -223 -111 -336 -209 -369 -319 -8 -27 -7 -49 4 -92 11 -41 12 -70 6
-104 -14 -74 -3 -107 52 -159 53 -50 58 -51 144 -30 92 22 95 21 95 -26 0 -26
-7 -50 -20 -66 -11 -14 -20 -32 -20 -39 0 -27 23 -63 45 -68 31 -8 44 -60 21
-85 -22 -24 -21 -25 21 -57 21 -15 32 -21 26 -13 -15 18 -8 29 19 29 24 0 34
-26 17 -46 -17 -20 -17 -20 169 -95 85 -34 167 -73 183 -86 16 -14 36 -23 44
-19 8 3 21 -4 29 -15 7 -11 20 -19 27 -18 8 2 28 -5 46 -14 18 -9 40 -17 50
-17 10 0 79 -27 153 -61 74 -34 164 -74 200 -89 36 -16 117 -51 180 -80 63
-28 152 -67 198 -87 50 -21 82 -41 82 -50 0 -8 -7 -41 -15 -72 -24 -94 -75
-417 -89 -571 -7 -80 -11 -185 -9 -235 10 -187 -26 -360 -122 -589 -38 -90
-52 -157 -84 -406 -15 -113 -16 -142 -5 -178 9 -32 10 -60 2 -114 -9 -60 -8
-79 7 -127 13 -43 17 -85 16 -178 -2 -99 2 -131 18 -179 12 -32 20 -59 18 -60
-1 -1 -49 -9 -107 -18 -58 -8 -195 -40 -305 -71 -276 -77 -320 -83 -702 -93
-331 -9 -332 -9 -376 -35 -55 -33 -133 -116 -216 -232 -76 -107 -86 -142 -72
-249 15 -112 14 -363 -3 -492 -8 -60 -20 -156 -26 -213 -6 -57 -25 -168 -41
-245 -16 -78 -32 -170 -35 -206 -6 -74 1 -92 92 -224 28 -40 63 -105 78 -143
14 -37 69 -156 121 -262 75 -154 95 -204 95 -237 0 -36 5 -46 27 -61 15 -10
77 -68 138 -128 122 -123 168 -160 206 -170 51 -13 113 66 161 205 38 110 48
179 48 320 0 138 0 140 -25 156 -14 9 -34 35 -44 58 -10 22 -43 68 -74 100
l-55 59 -87 -7 c-71 -6 -91 -4 -111 9 -13 8 -24 21 -24 28 0 7 -12 29 -26 50
-14 21 -32 53 -39 72 -13 30 -13 35 7 61 13 15 23 35 25 43 3 22 -34 162 -64
240 -24 62 -25 74 -19 193 7 137 39 412 61 520 16 77 51 129 126 184 85 62
104 66 309 67 211 0 579 -37 765 -78 95 -20 146 -24 365 -28 199 -4 265 -9
299 -21 24 -9 68 -16 98 -16 l55 0 -5 -222 c-5 -233 -9 -260 -70 -543 -20 -88
-56 -277 -82 -420 -26 -143 -56 -300 -67 -350 -18 -79 -19 -98 -9 -165 6 -41
11 -123 11 -181 0 -122 -19 -207 -121 -539 -94 -303 -118 -370 -158 -440 -21
-36 -58 -108 -84 -160 -63 -131 -96 -166 -215 -229 -141 -74 -366 -245 -411
-313 -36 -52 -121 -253 -121 -284 0 -8 -4 -24 -10 -34 -20 -38 2 -40 366 -38
l348 3 43 75 c23 41 50 98 59 125 14 44 14 57 2 111 -8 34 -11 70 -7 81 9 26
52 59 160 124 80 48 87 50 135 44 48 -6 53 -4 73 21 14 18 21 41 21 73 0 25 5
62 10 81 6 19 12 69 14 110 2 41 9 88 15 103 15 38 99 337 146 517 123 473
164 592 241 706 69 101 84 142 84 225 0 57 45 231 102 394 74 213 128 363 144
400 9 22 61 166 114 320 164 471 173 494 191 500 10 3 80 1 156 -4 76 -6 168
-11 206 -11 l67 0 0 -29 c0 -17 -3 -32 -7 -34 -5 -3 -72 0 -151 6 -114 8 -147
8 -167 -3 -26 -14 -48 -62 -38 -86 12 -32 140 -103 214 -119 19 -4 63 -22 99
-41 36 -18 87 -38 113 -44 54 -12 101 -4 93 15 -11 28 110 45 157 22 18 -9 44
-19 60 -22 21 -4 27 -11 27 -30 0 -34 27 -40 185 -40 l129 0 9 30 c5 17 15 51
23 76 11 33 13 67 8 128 l-7 83 49 -6 c27 -3 146 -15 264 -26 118 -12 253 -25
300 -30 115 -13 677 -13 798 1 159 17 284 46 510 120 117 38 224 69 236 69 15
0 36 -14 56 -37 32 -36 32 -39 27 -106 -7 -84 5 -156 43 -262 44 -119 90 -316
90 -382 0 -46 7 -74 35 -132 l35 -73 0 -181 c0 -284 9 -322 129 -562 55 -110
104 -216 110 -235 35 -116 55 -453 32 -529 -15 -49 -81 -155 -148 -238 -324
-402 -431 -523 -503 -568 -25 -15 -81 -62 -125 -105 -88 -85 -111 -99 -200
-125 -33 -9 -117 -43 -187 -76 -69 -32 -140 -59 -156 -59 -61 0 -152 -132
-203 -294 -10 -33 -19 -64 -19 -69 0 -4 172 -6 382 -5 l382 3 14 40 c8 22 23
62 35 88 18 41 19 53 9 79 -6 18 -9 34 -6 37 3 3 57 5 120 3 l115 -2 17 31 c9
18 32 50 50 73 17 22 44 61 60 85 60 97 98 149 151 211 110 128 381 417 501
535 67 66 147 152 178 190 30 39 96 109 145 156 l90 86 -5 66 c-4 50 -14 81
-41 129 -41 73 -58 134 -87 308 -11 69 -31 168 -44 220 -38 147 -59 296 -54
369 7 91 79 302 130 380 38 58 63 82 248 229 41 33 129 115 194 181 66 67 125
120 131 117 7 -2 48 -58 93 -123 44 -65 94 -131 112 -148 18 -16 46 -50 63
-75 16 -25 58 -72 92 -105 43 -42 89 -105 153 -210 99 -163 197 -281 323 -388
80 -69 164 -166 222 -258 71 -112 156 -277 177 -345 12 -38 41 -100 63 -138
36 -61 43 -82 54 -170 18 -144 17 -594 -1 -688 -17 -85 -80 -298 -101 -339
-22 -42 -78 -92 -148 -133 -35 -20 -102 -67 -151 -103 -72 -55 -92 -76 -117
-125 -28 -56 -99 -241 -99 -259 0 -5 150 -9 333 -8 l332 0 34 57 c46 77 47
124 4 185 -40 55 -41 66 -5 99 48 45 110 71 159 65 42 -4 44 -3 58 30 8 20 15
51 15 69 0 18 7 52 16 73 14 35 14 55 5 141 -13 122 -14 823 -1 935 11 89 33
516 34 640 1 103 -17 140 -99 204 -77 61 -317 351 -429 521 -104 157 -111 170
-126 255 -7 39 -28 124 -47 190 -38 131 -38 145 -14 445 16 193 12 574 -9 890
-11 162 -20 305 -20 318 0 28 17 29 26 0 4 -13 21 -36 38 -51 16 -16 42 -56
56 -90 19 -45 36 -68 68 -91 37 -27 50 -46 93 -146 89 -204 90 -210 94 -302 3
-65 11 -108 34 -170 99 -277 142 -374 194 -446 19 -26 38 -58 42 -72 4 -14 15
-38 25 -55 10 -16 26 -73 35 -125 11 -68 27 -118 56 -174 21 -44 39 -86 39
-95 0 -24 89 -207 97 -201 4 3 15 26 24 53 21 63 25 65 51 32 12 -16 43 -51
69 -79 26 -28 68 -81 94 -116 26 -36 69 -87 95 -115 26 -27 57 -67 69 -87 42
-71 103 -100 117 -55 9 32 34 57 57 57 10 0 34 -15 53 -34 19 -19 37 -30 40
-25 9 15 23 10 46 -16 26 -31 34 -31 41 -3 5 17 9 19 20 10 11 -9 18 -8 31 6
15 17 15 22 1 55 -8 20 -15 49 -15 65 0 15 -11 43 -25 62 -26 35 -26 52 0 30
29 -24 17 19 -20 67 -19 25 -35 54 -35 65 0 10 -17 53 -39 96 -21 42 -42 91
-45 108 -4 18 -16 40 -28 50 -11 11 -24 30 -29 42 -5 13 -18 26 -29 29 -24 6
-26 19 -5 27 13 5 13 12 -4 58 -13 36 -19 85 -20 156 -2 75 -9 124 -27 184
-25 85 -31 138 -14 138 14 0 60 -71 60 -93 0 -22 30 -77 42 -77 4 0 -2 24 -14
53 -11 28 -33 95 -48 147 -14 52 -37 115 -49 139 -14 27 -20 52 -17 67 13 49
-52 481 -93 625 -46 160 -157 385 -236 477 -110 129 -335 284 -460 317 -32 8
-64 20 -72 27 -26 21 -562 170 -660 183 -111 15 -268 47 -307 63 -22 9 -80 38
-127 64 -117 65 -443 213 -669 305 -95 38 -301 105 -306 100 -2 -2 53 -27 124
-56 85 -35 148 -68 192 -101 86 -66 210 -198 210 -224 1 -23 32 -66 48 -66 6
0 19 -11 30 -25 11 -14 22 -25 25 -25 15 0 76 -68 79 -88 2 -12 6 -21 10 -20
4 2 25 -14 47 -36 25 -25 45 -37 55 -33 22 9 46 -2 46 -20 0 -7 13 -22 30 -31
35 -20 38 -42 11 -66 -21 -19 -18 -46 4 -46 18 0 29 -38 17 -53 -6 -7 -24 -20
-41 -30 l-31 -18 0 35 c0 25 -5 36 -15 36 -17 0 -35 -30 -35 -59 0 -15 -6 -21
-21 -21 -35 0 -55 -17 -69 -59 -7 -23 -17 -41 -21 -41 -15 0 -20 20 -9 39 15
29 -8 38 -27 11 -15 -21 -17 -22 -29 -5 -17 23 -34 11 -34 -26 0 -46 -26 -40
-65 16 -7 11 -17 17 -21 13 -4 -4 -2 -13 4 -21 8 -10 6 -16 -8 -24 -15 -10
-20 -8 -30 18 -9 20 -19 29 -35 29 -30 0 -40 -28 -18 -52 13 -15 14 -21 5 -27
-7 -4 -15 -30 -19 -58 -4 -39 -1 -58 13 -83 17 -29 18 -33 3 -43 -22 -17 -13
-34 26 -53 26 -12 34 -22 37 -51 5 -43 -5 -48 -61 -28 -53 18 -85 20 -78 3 20
-48 19 -49 -2 -55 -14 -3 -21 -13 -21 -29 0 -25 -18 -32 -37 -13 -7 7 -8 20
-4 33 5 11 6 28 2 37 -10 26 -67 69 -91 69 -19 0 -21 -4 -16 -27 4 -16 8 -52
11 -81 4 -52 2 -55 -33 -88 -20 -19 -42 -34 -49 -34 -13 0 -76 75 -86 103 -4
10 -21 24 -39 32 -18 7 -46 23 -61 35 -24 19 -32 21 -51 10 -19 -10 -29 -9
-55 5 -38 19 -36 40 5 41 65 3 72 5 78 21 4 9 2 21 -4 27 -7 7 -10 5 -10 -7 0
-17 -23 -19 -49 -3 -10 7 -8 14 13 32 22 21 24 28 14 49 -6 14 -23 27 -38 30
-18 4 -30 14 -34 29 -8 32 -46 47 -77 30 -51 -28 -74 -19 -154 62 -58 59 -80
75 -96 71 -15 -4 -22 1 -29 19 -12 31 -23 30 -40 -1 -18 -34 -46 -29 -42 8 2
21 -2 28 -24 33 -23 6 -33 1 -63 -32 -20 -21 -47 -52 -59 -69 -31 -40 -58 -25
-55 31 10 193 4 198 -108 90 -47 -45 -100 -104 -118 -130 -18 -26 -51 -61 -74
-77 -23 -17 -44 -40 -47 -52 -5 -20 -13 -22 -65 -22 -68 0 -101 -9 -109 -30
-9 -25 -26 -16 -26 13 0 30 48 105 127 199 24 28 40 53 36 56 -4 2 -25 10 -45
16 -31 10 -41 10 -63 -5 -25 -16 -28 -16 -64 4 -33 19 -43 20 -70 11 -17 -6
-42 -8 -55 -5 -29 7 -96 -19 -114 -45 -7 -10 -19 -16 -28 -12 -8 3 -23 -2 -34
-12 -17 -16 -19 -16 -30 4 -14 28 -34 26 -54 -4 -9 -14 -39 -36 -67 -50 -93
-48 -75 -78 52 -90 45 -3 88 -9 95 -12 21 -8 17 -23 -5 -23 -11 0 -23 -4 -26
-10 -3 -5 -19 -10 -36 -10 -25 0 -29 -4 -29 -26 0 -19 -7 -28 -30 -37 -29 -11
-41 -27 -20 -27 6 0 10 -11 10 -24 0 -14 -4 -28 -10 -31 -5 -3 -10 1 -10 9 0
20 -5 20 -33 2 -12 -7 -43 -16 -70 -20 -26 -3 -62 -13 -79 -22 -25 -13 -36
-14 -50 -5 -13 8 -24 8 -39 1 -40 -22 -162 41 -152 79 7 26 -21 44 -57 36 -16
-4 -30 -12 -30 -18 0 -7 -5 -4 -11 6 -7 12 -20 18 -37 16 -15 -1 -38 3 -52 9
-14 6 -37 13 -51 16 -47 10 -62 73 -84 364 -17 213 -40 345 -74 425 -12 27
-21 50 -21 52 0 7 63 35 78 35 8 0 33 9 56 21 86 44 96 48 96 38 0 -5 -11 -27
-25 -49 -23 -36 -25 -70 -5 -70 5 0 26 10 46 22 20 12 55 22 76 22 39 1 40 2
56 51 15 43 22 52 53 62 75 24 105 26 124 6 10 -10 34 -24 54 -32 34 -13 51
-15 96 -12 11 1 38 1 60 1 50 -1 100 17 146 53 20 15 39 27 44 27 16 0 95 55
95 66 0 8 11 10 33 5 38 -9 57 -4 57 15 0 9 11 13 34 12 41 -1 94 18 120 45
13 14 25 17 45 11 14 -4 51 -9 81 -10 30 -2 83 -6 117 -10 53 -5 76 -2 145 21
153 51 223 78 257 98 18 11 50 26 70 33 33 12 25 13 -90 14 -82 0 -143 5 -175
15 -27 8 -77 15 -111 15 -54 0 -65 3 -77 23 -14 20 -13 31 5 101 19 76 20 82
4 117 -13 28 -14 41 -6 57 8 15 6 23 -10 37 -19 18 -22 18 -97 1 -121 -29
-127 -28 -126 16 1 44 34 111 78 158 76 81 79 102 41 231 -14 46 -43 152 -65
234 -63 231 -150 516 -171 557 -10 20 -30 53 -43 73 -49 71 -44 162 11 205 25
19 59 76 109 180 14 30 41 75 58 100 18 25 44 68 58 95 191 373 197 389 224
595 25 191 14 248 -68 368 -23 33 -30 56 -32 95 -1 52 -1 52 -49 75 -26 12
-77 30 -113 40 l-65 17 -50 -28 c-63 -35 -89 -26 -89 30 0 20 -5 51 -12 69
-16 44 9 84 53 84 79 0 215 114 270 226 102 206 36 502 -152 685 -154 151
-407 225 -592 174z m303 -127 c47 -24 63 -54 34 -65 -9 -3 -64 4 -123 16 -143
31 -134 27 -121 51 16 30 148 29 210 -2z m-152 -72 c32 -9 68 -16 79 -16 45 0
111 -86 86 -111 -21 -21 -150 33 -164 68 -11 29 -25 29 -32 2 -4 -14 -12 -19
-24 -17 -14 3 -18 12 -16 41 2 26 -2 37 -11 37 -8 0 -13 -8 -12 -17 1 -14 -7
-18 -34 -18 -28 0 -35 4 -35 20 0 13 10 22 33 29 23 6 34 17 39 35 l6 26 13
-31 c11 -26 22 -34 72 -48z m-18 -118 c43 -29 48 -46 16 -54 -29 -7 -119 20
-148 45 -18 15 -16 16 34 22 29 3 56 6 59 7 3 1 21 -8 39 -20z m-210 -2 c0 -3
-4 -8 -10 -11 -5 -3 -10 -1 -10 4 0 6 5 11 10 11 6 0 10 -2 10 -4z m452 -51
c11 -14 25 -25 32 -25 7 0 23 -11 36 -25 21 -23 22 -27 9 -40 -13 -14 -21 -11
-69 25 -58 43 -75 64 -65 80 11 18 37 11 57 -15z m-142 -5 c0 -5 -4 -10 -10
-10 -5 0 -10 5 -10 10 0 6 5 10 10 10 6 0 10 -4 10 -10z m-2867 -56 c29 -28
33 -39 18 -49 -9 -5 -81 74 -81 89 0 11 33 -10 63 -40z m37 -110 c0 -11 -18
-14 -80 -14 -60 0 -80 3 -80 13 0 21 4 22 84 19 57 -3 76 -7 76 -18z m2782 11
c0 -5 -5 -11 -11 -13 -6 -2 -11 4 -11 13 0 9 5 15 11 13 6 -2 11 -8 11 -13z
m-262 -41 c0 -9 -7 -14 -17 -12 -25 5 -28 28 -4 28 12 0 21 -6 21 -16z m60
-29 c0 -8 -7 -15 -15 -15 -8 0 -15 7 -15 15 0 8 7 15 15 15 8 0 15 -7 15 -15z
m225 -31 c59 -9 62 -18 22 -67 -20 -25 -37 -54 -37 -65 0 -11 -7 -23 -16 -26
-11 -4 -14 -13 -11 -28 11 -39 -28 -87 -70 -88 -13 0 -32 -9 -43 -20 -25 -25
-41 -25 -71 -1 l-24 19 28 11 28 11 -18 30 c-14 24 -15 34 -6 48 12 19 13 19
60 0 26 -10 35 -10 45 0 17 17 -5 32 -47 32 -36 0 -48 8 -64 37 -15 29 -14 40
6 47 9 4 25 -2 38 -14 24 -23 45 -26 63 -8 16 16 15 43 -3 58 -41 34 3 43 120
24z m-2380 -176 c5 -30 3 -44 -11 -59 -28 -31 -58 -21 -62 21 -2 19 -8 39 -13
45 -14 14 -11 36 7 56 15 17 17 17 44 -3 20 -14 31 -33 35 -60z m110 -48 c11
-12 26 -18 39 -15 27 6 43 -4 54 -35 7 -18 21 -27 53 -35 31 -8 45 -17 47 -30
2 -11 15 -32 29 -47 24 -25 27 -26 50 -11 32 21 38 12 25 -39 -14 -54 -8 -61
12 -14 16 39 30 44 63 21 12 -9 26 -14 30 -13 4 2 18 -5 29 -16 63 -54 74 -66
74 -81 0 -16 -96 -125 -111 -125 -4 0 -18 20 -30 44 -18 36 -29 46 -58 53 -25
6 -36 15 -35 26 2 23 -4 21 -26 -5 -16 -20 -22 -21 -37 -10 -10 6 -27 16 -38
21 -12 5 -27 16 -34 25 -7 9 -19 16 -25 16 -6 0 -32 16 -58 35 -32 23 -46 40
-42 50 6 16 -5 22 -46 28 -34 5 -70 60 -70 108 0 32 5 41 28 53 37 21 56 20
77 -4z m-1500 -121 c12 -19 -5 -23 -22 -6 -16 16 -16 17 -1 17 9 0 20 -5 23
-11z m484 -48 c-15 -5 -22 6 -14 19 6 9 10 9 16 -1 5 -8 4 -15 -2 -18z m-349
-6 c6 -16 16 -25 26 -23 26 5 26 -14 0 -46 l-24 -29 -48 17 c-26 9 -51 16 -56
16 -14 0 -9 -37 7 -50 8 -7 15 -25 15 -40 0 -33 29 -61 55 -54 14 3 31 -6 55
-31 19 -20 53 -45 75 -56 55 -27 82 -43 103 -62 11 -10 26 -14 41 -10 16 4 31
-2 54 -23 18 -17 42 -38 54 -48 22 -18 22 -18 20 10 -2 25 1 29 21 26 17 -1
25 4 29 18 9 33 39 21 35 -14 -4 -27 -2 -29 27 -23 27 6 34 2 58 -30 16 -20
47 -57 71 -82 24 -25 52 -63 62 -83 25 -46 43 -59 34 -24 -8 33 14 43 52 24
31 -15 48 -46 20 -35 -10 4 -24 1 -31 -7 -12 -12 -12 -20 3 -55 9 -22 22 -41
29 -41 7 0 17 -9 23 -19 5 -11 19 -22 29 -26 11 -3 26 -23 35 -44 13 -35 19
-39 48 -38 l33 2 -3 -95 c-2 -53 2 -108 8 -124 7 -20 7 -32 0 -41 -16 -20 -1
-65 21 -65 34 0 34 -29 0 -61 -33 -29 -34 -49 -3 -49 9 0 25 -14 34 -30 21
-38 34 -38 56 0 9 16 29 34 43 41 23 9 27 18 33 69 8 65 18 78 61 76 25 -1 31
-6 33 -30 3 -25 1 -28 -17 -23 -28 7 -38 -14 -57 -110 -8 -42 -19 -82 -25 -89
-6 -7 -8 -23 -4 -35 4 -12 2 -39 -5 -60 -7 -21 -9 -46 -5 -56 4 -10 7 -34 6
-54 -2 -39 13 -60 23 -33 3 9 3 26 0 39 -4 18 2 30 27 53 31 28 32 32 32 105
0 93 19 112 37 36 7 -27 16 -52 22 -55 5 -3 6 -19 3 -35 -6 -26 9 -118 22
-142 2 -4 16 2 30 13 14 11 32 20 39 20 19 0 18 -24 -1 -40 -21 -18 -19 -30 6
-30 17 0 20 -4 15 -22 -3 -13 -6 -37 -6 -55 0 -17 -7 -38 -15 -47 -8 -8 -15
-24 -15 -36 0 -13 -8 -24 -20 -27 -32 -8 -22 -63 11 -63 10 0 19 -4 19 -10 0
-5 8 -17 18 -27 26 -25 33 -48 19 -67 -9 -12 -34 -17 -102 -21 -49 -2 -119 -8
-155 -13 -36 -5 -74 -6 -85 -2 -11 4 -31 3 -45 -2 -14 -5 -52 -6 -90 -1 -36 4
-77 6 -92 5 -18 -2 -30 3 -37 16 -6 11 -24 25 -40 30 -24 8 -36 7 -66 -9 -24
-13 -47 -18 -65 -14 -26 6 -27 4 -33 -39 -4 -25 -5 -51 -3 -58 3 -7 7 -25 10
-40 4 -19 16 -30 42 -40 30 -11 35 -16 32 -42 -3 -25 -9 -31 -43 -41 -44 -12
-46 -19 -31 -101 6 -35 4 -45 -12 -60 -15 -15 -20 -38 -25 -112 -5 -87 -4 -94
17 -117 18 -20 23 -37 24 -81 0 -30 6 -61 12 -69 6 -8 9 -19 5 -24 -10 -18 15
-51 38 -51 21 0 23 -5 24 -52 0 -29 -4 -61 -9 -72 -15 -28 9 -47 28 -22 14 19
14 19 28 1 13 -17 15 -16 42 24 l28 43 -22 18 c-28 23 -27 26 2 53 14 12 27
37 30 55 2 18 12 45 22 60 19 28 26 115 12 143 -5 11 0 26 13 43 21 27 22 66
6 176 -5 31 23 81 43 78 8 -1 26 5 40 14 29 20 146 48 196 48 19 0 62 14 95
30 l60 31 27 -28 c24 -25 27 -35 27 -97 -1 -47 3 -70 12 -73 16 -6 17 -40 1
-45 -9 -3 -9 -12 1 -36 7 -18 11 -44 8 -58 -5 -30 29 -74 58 -74 15 0 21 -31
8 -44 -4 -3 -8 -16 -10 -28 -2 -12 -11 -33 -19 -46 -14 -22 -14 -25 2 -43 13
-15 25 -18 51 -13 32 6 33 5 31 -24 -1 -19 5 -39 17 -52 15 -16 17 -26 9 -48
-9 -25 -14 -27 -84 -33 -97 -8 -161 -32 -181 -67 -10 -17 -33 -35 -60 -45 -24
-9 -57 -21 -72 -27 -16 -5 -26 -14 -22 -19 3 -6 21 -4 46 4 30 11 45 12 63 3
19 -8 29 -7 47 6 28 19 52 20 79 4 15 -10 22 -9 39 6 15 13 24 16 33 9 7 -6
40 -19 73 -29 82 -24 94 -36 74 -72 -9 -15 -19 -40 -23 -56 -4 -16 -18 -43
-32 -59 -13 -16 -24 -40 -24 -53 0 -14 -9 -42 -20 -64 -11 -21 -16 -41 -11
-44 15 -10 59 43 65 79 19 99 93 204 199 281 57 42 188 105 210 102 36 -5 32
-36 -8 -59 -25 -15 -35 -27 -33 -42 2 -13 -6 -26 -22 -36 -14 -9 -42 -26 -62
-39 -44 -28 -62 -68 -53 -120 5 -32 2 -44 -17 -68 -35 -44 -47 -91 -44 -174 3
-67 6 -75 25 -78 15 -3 24 4 31 24 10 25 12 25 28 11 10 -9 19 -29 20 -44 3
-49 33 -176 53 -228 10 -28 19 -56 19 -63 0 -7 22 -33 49 -58 55 -51 105 -137
121 -209 6 -28 20 -63 32 -79 11 -16 21 -45 22 -65 1 -33 -1 -36 -30 -39 -62
-6 -262 165 -315 270 -12 24 -48 77 -80 119 -33 42 -59 85 -59 95 0 11 -11 35
-24 53 -15 21 -27 54 -32 87 -3 30 -10 57 -15 60 -5 3 -9 18 -9 34 0 16 -5 32
-11 36 -6 3 -8 16 -5 28 7 26 -9 55 -23 41 -5 -6 -11 -25 -13 -44 -4 -46 -28
-54 -29 -9 -1 18 -5 44 -9 58 -7 22 -8 21 -11 -15 -11 -179 27 -335 122 -496
59 -99 99 -140 217 -225 136 -97 249 -155 262 -134 12 20 64 1 68 -25 2 -11
13 -30 24 -41 10 -12 25 -41 33 -65 7 -24 27 -79 44 -122 51 -127 41 -160 -42
-147 -44 6 -52 4 -73 -16 -13 -14 -35 -24 -52 -24 -26 0 -29 -3 -24 -25 3 -19
-1 -27 -19 -34 -14 -4 -24 -16 -24 -27 0 -10 -8 -20 -17 -22 -12 -2 -18 3 -18
16 0 11 -7 22 -15 26 -11 4 -15 -1 -15 -18 0 -24 -24 -41 -42 -30 -5 3 -7 13
-4 21 5 12 1 14 -16 10 -15 -4 -30 1 -46 16 -20 18 -24 19 -33 7 -5 -8 -7 -34
-4 -58 7 -49 -13 -66 -44 -38 -24 22 -31 12 -31 -43 0 -30 -7 -56 -22 -78 -26
-38 -49 -48 -76 -34 -15 8 -23 6 -37 -9 -13 -14 -22 -17 -38 -10 -12 5 -34 11
-49 14 -34 8 -35 19 -6 46 19 18 21 24 11 49 -6 16 -8 41 -6 54 3 15 -4 45
-18 72 -26 51 -19 80 19 80 34 1 37 14 10 43 -26 27 -26 28 -17 117 11 110 11
125 1 245 -5 53 -5 99 -1 105 12 13 11 92 -1 116 -16 28 -27 24 -50 -20 -11
-22 -29 -42 -40 -46 -11 -4 -26 -21 -34 -39 -7 -18 -28 -49 -46 -69 -26 -30
-33 -47 -35 -88 -2 -34 -10 -60 -24 -78 -12 -14 -28 -41 -36 -58 -10 -21 -22
-33 -35 -33 -15 0 -20 -7 -20 -27 0 -31 -34 -93 -50 -93 -5 0 -10 -15 -10 -34
0 -19 -4 -38 -10 -41 -5 -3 -9 -23 -9 -43 1 -74 -3 -104 -17 -144 -8 -22 -14
-51 -14 -63 0 -13 -17 -40 -40 -63 -22 -22 -40 -49 -40 -61 0 -25 -42 -71 -65
-71 -9 0 -31 -17 -50 -37 -33 -36 -34 -37 -54 -19 -15 14 -29 16 -61 11 -31
-5 -49 -2 -80 14 -23 12 -47 21 -54 21 -45 0 -204 164 -191 198 3 8 -10 44
-28 81 -73 143 -71 135 -55 182 10 29 22 45 36 49 36 9 115 81 103 93 -8 8
-19 5 -41 -11 -16 -12 -34 -22 -40 -22 -19 0 -21 25 -5 56 8 16 15 39 15 51 0
13 7 41 16 63 22 54 9 64 -25 20 -63 -83 -76 -93 -98 -81 -12 6 -44 11 -71 11
l-50 0 -47 65 c-25 36 -50 65 -56 65 -5 0 -9 11 -9 24 0 12 -11 34 -24 48 -12
14 -26 33 -29 41 -8 22 15 48 53 61 67 22 65 66 -4 99 -22 10 -43 31 -53 51
-15 32 -15 36 4 73 13 25 30 41 49 47 62 19 84 29 84 38 0 10 -19 8 -65 -7
-16 -5 -24 3 -43 37 -12 24 -22 51 -22 60 0 25 37 105 60 130 25 27 25 34 0
65 -15 20 -17 29 -9 39 6 8 15 12 19 9 16 -10 20 13 8 39 -12 29 -33 28 -77
-3 -13 -9 -33 -23 -45 -31 -12 -8 -46 -41 -77 -72 -52 -55 -79 -71 -79 -48 0
5 15 27 34 47 18 21 41 53 50 71 9 18 53 69 97 113 43 43 79 85 79 93 0 7 -7
19 -15 26 -14 11 -14 15 1 38 15 23 15 27 -10 76 -22 44 -25 62 -23 127 2 48
9 83 19 97 9 14 14 36 11 58 -2 20 0 41 5 48 5 6 13 43 16 81 4 39 13 86 20
105 8 19 19 62 26 95 7 33 16 71 20 85 4 14 13 45 20 70 7 25 19 62 26 83 8
20 14 46 14 58 0 33 38 97 68 113 15 8 25 16 22 16 -3 1 -84 2 -180 4 -96 2
-190 7 -207 11 -41 9 -43 32 -5 68 23 22 37 27 80 27 l52 0 24 54 c13 30 33
59 45 65 35 19 104 24 125 9 17 -14 17 -16 2 -47 -18 -34 -13 -71 9 -71 15 0
45 27 45 40 0 5 23 33 50 63 28 31 46 58 41 61 -13 9 -146 25 -201 26 -58 0
-96 20 -92 46 2 10 19 35 38 54 22 23 34 46 34 64 0 15 5 36 10 47 6 10 15 45
21 76 6 32 17 72 26 90 13 28 13 35 -1 62 -9 17 -31 47 -48 67 -17 19 -33 47
-34 62 -2 15 -6 39 -10 55 -7 31 9 57 37 57 10 0 34 -14 54 -31 20 -18 39 -28
43 -25 4 4 -13 25 -38 47 l-45 39 34 28 c23 20 30 31 22 36 -6 4 -18 2 -26 -4
-12 -10 -18 -10 -30 0 -23 19 -19 33 30 114 46 75 55 97 75 174 9 37 14 42 39
42 38 0 72 39 72 81 -2 90 -13 150 -43 218 -13 30 -15 48 -8 55 20 20 9 47
-41 93 -28 27 -58 65 -66 86 -17 40 -28 45 -53 22 -15 -14 -20 -13 -52 8 -19
13 -47 27 -63 31 -16 4 -41 16 -56 27 -15 10 -41 19 -58 19 -22 0 -43 11 -71
36 -36 33 -40 41 -40 85 0 41 4 51 26 65 26 18 27 24 9 82 -6 17 -3 22 11 22
11 0 28 -7 38 -15 28 -21 46 -19 81 10 38 31 43 31 55 0z m459 -29 c13 -16 -4
-26 -45 -26 -30 0 -31 14 -1 28 30 14 33 14 46 -2z m98 -88 c58 -57 62 -65 36
-70 -35 -8 -90 29 -107 72 -20 50 -20 50 1 50 10 0 41 -23 70 -52z m3092 -19
c23 -65 11 -99 -34 -99 -8 0 -26 -5 -42 -11 l-28 -11 35 -11 c61 -21 49 -39
-50 -80 -50 -20 -100 -37 -111 -37 -32 0 -22 27 26 66 25 20 44 42 42 48 -2 6
-21 13 -42 16 -51 7 -55 25 -10 52 37 21 37 21 16 37 -31 24 -9 41 54 42 27 1
61 5 75 9 46 15 58 11 69 -21z m-3699 -9 c0 -5 -4 -10 -10 -10 -5 0 -10 5 -10
10 0 6 5 10 10 10 6 0 10 -4 10 -10z m-475 -44 c19 -8 38 -22 41 -31 7 -18
-22 -55 -44 -55 -26 0 -123 61 -116 73 24 42 43 44 119 13z m613 6 c3 -9 -2
-13 -14 -10 -9 1 -19 9 -22 16 -3 9 2 13 14 10 9 -1 19 -9 22 -16z m1837 9 c8
-14 -38 -113 -63 -134 -27 -25 -42 -14 -42 29 0 54 84 138 105 105z m-2299
-36 c8 -19 58 -12 62 9 5 25 35 15 46 -15 11 -32 1 -79 -18 -79 -7 0 -18 12
-25 26 -14 32 -36 26 -37 -10 -1 -16 -10 -33 -25 -44 -35 -24 -82 -72 -76 -78
2 -3 20 4 38 14 66 38 83 36 116 -11 16 -23 33 -54 36 -69 4 -14 25 -41 47
-58 22 -17 40 -39 40 -49 0 -14 9 -17 50 -17 54 0 57 3 35 32 -21 28 -18 43
11 66 24 20 24 21 7 40 -15 16 -15 21 -3 28 28 18 48 10 68 -25 13 -21 32 -37
49 -41 15 -4 42 -17 60 -30 21 -16 45 -24 72 -24 36 0 44 -4 61 -32 38 -63 36
-158 -4 -182 -13 -9 -20 -6 -35 13 -24 31 -33 9 -20 -50 17 -72 -15 -117 -78
-110 -11 1 -24 -3 -28 -8 -3 -6 -17 -11 -30 -11 -15 0 -31 -10 -41 -25 -9 -14
-20 -25 -25 -25 -19 0 -7 33 22 60 29 28 30 31 19 69 -6 23 -15 41 -19 41 -9
0 -21 -34 -21 -64 0 -10 -11 -27 -25 -37 -14 -12 -22 -26 -19 -34 4 -9 -3 -18
-19 -24 -14 -5 -28 -15 -32 -21 -4 -6 -17 -15 -30 -20 -22 -8 -35 -44 -36 -94
0 -33 -19 -58 -40 -53 -12 3 -23 -2 -29 -13 -5 -10 -26 -28 -46 -41 -31 -19
-41 -21 -65 -12 -19 7 -42 8 -70 2 -52 -12 -79 -3 -176 57 -70 44 -163 136
-163 162 0 7 19 33 41 57 25 27 36 45 27 45 -8 0 -27 -14 -44 -31 -16 -17 -42
-38 -59 -46 -16 -9 -49 -33 -72 -54 -25 -23 -53 -39 -67 -39 -14 0 -27 -4 -30
-8 -6 -11 -76 -2 -76 9 0 5 -7 9 -15 9 -17 0 -20 -26 -5 -35 17 -10 -10 -36
-30 -30 -11 4 -21 -4 -31 -26 -15 -35 -110 -94 -135 -85 -22 9 -16 33 10 40
24 6 41 31 31 46 -3 5 -22 14 -41 20 -29 10 -38 10 -44 0 -4 -7 -15 -10 -24
-7 -16 6 -68 102 -91 168 -12 33 -12 39 4 53 10 9 30 16 44 16 23 0 27 4 27
28 0 43 11 50 90 67 117 24 149 36 156 57 4 13 11 17 25 13 15 -5 23 1 34 29
15 36 29 49 55 51 9 1 41 26 71 56 74 73 169 146 203 155 16 4 37 21 52 45 29
46 52 60 118 68 46 5 52 10 73 46 12 22 23 50 23 62 0 42 61 49 76 8z m2352
-17 c6 -7 13 -50 17 -95 7 -74 6 -83 -10 -89 -45 -18 -82 99 -51 162 17 36 27
41 44 22z m-2626 -44 c-4 -36 -25 -59 -46 -51 -30 12 -31 39 -2 64 35 30 52
25 48 -13z m2688 -51 c0 -10 7 -27 15 -37 17 -23 20 -56 5 -56 -11 0 -19 16
-24 42 -1 7 -7 23 -14 35 -16 28 -15 33 3 33 8 0 15 -8 15 -17z m-2154 -58
c17 -26 12 -45 -11 -45 -16 0 -45 38 -45 57 0 22 39 14 56 -12z m-697 -24 c7
-5 11 -13 7 -19 -9 -15 -59 -22 -74 -9 -11 8 -9 13 10 23 27 16 38 17 57 5z
m3097 -47 c15 -39 15 -47 3 -55 -20 -12 -32 -6 -47 23 -9 21 -10 32 -1 52 17
36 25 33 45 -20z m1731 16 c10 -11 22 -20 29 -20 20 0 44 -34 34 -50 -5 -8 -5
-19 1 -26 5 -6 12 -32 15 -58 6 -44 5 -49 -29 -84 -19 -20 -40 -53 -45 -73 -5
-19 -21 -48 -36 -63 -26 -29 -34 -56 -16 -56 6 0 10 -9 10 -20 0 -15 -6 -19
-22 -17 -20 2 -23 -3 -25 -37 -1 -46 -24 -68 -61 -61 -35 6 -47 -4 -24 -21 30
-21 8 -75 -53 -132 -27 -26 -55 -56 -60 -67 -6 -11 -24 -27 -42 -35 l-31 -15
5 -72 c7 -87 -3 -93 -54 -33 -53 62 -63 55 -63 -43 0 -98 -12 -122 -68 -131
-22 -3 -51 -15 -66 -27 -25 -20 -29 -20 -65 -6 -35 15 -40 14 -70 -4 -18 -11
-44 -18 -59 -17 -15 1 -50 -6 -78 -16 -39 -13 -58 -14 -78 -6 -15 5 -41 10
-57 10 -70 0 -126 53 -131 125 -3 49 -2 50 25 50 19 -1 27 4 27 16 0 21 32 33
64 25 16 -4 29 1 41 14 10 11 26 20 37 20 15 0 17 5 12 27 l-7 27 48 -28 c44
-26 54 -17 13 12 -41 30 -5 57 43 31 27 -14 116 28 111 54 -5 24 43 40 96 32
40 -6 42 -5 42 19 0 14 5 28 11 31 7 5 3 16 -12 31 -12 13 -25 21 -29 19 -16
-10 -77 -13 -90 -5 -8 5 -15 27 -16 49 -2 36 1 41 19 41 30 0 57 29 57 63 0
38 36 96 65 107 13 5 29 22 37 37 8 18 21 28 35 28 28 0 34 7 37 47 2 25 8 34
24 36 17 3 23 -4 32 -38 6 -22 14 -39 18 -37 4 2 35 21 70 41 59 36 62 39 47
56 -15 16 -14 22 9 73 13 31 22 65 19 76 -8 31 56 91 95 91 17 0 34 5 38 11 3
6 18 9 33 6 15 -3 33 -2 41 4 22 13 28 11 47 -11z m-257 1 c0 -5 -9 -19 -19
-32 -14 -17 -23 -21 -30 -13 -8 7 -5 16 9 32 21 23 40 29 40 13z m-3120 -31
c0 -5 -4 -10 -10 -10 -5 0 -10 5 -10 10 0 6 5 10 10 10 6 0 10 -4 10 -10z
m305 -80 c26 -52 35 -82 35 -120 0 -36 -4 -50 -14 -50 -18 0 -36 52 -36 103 0
22 -7 48 -15 57 -8 9 -18 31 -21 48 -11 55 13 37 51 -38z m119 -2 c20 -23 36
-45 36 -48 0 -4 -9 -15 -20 -25 -16 -14 -23 -16 -32 -7 -11 11 -48 99 -48 115
0 20 32 3 64 -35z m1405 -28 c15 -11 18 -19 12 -30 -13 -19 -47 0 -83 47 -36
46 -26 61 17 26 19 -15 43 -35 54 -43z m309 18 c-3 -38 -7 -45 -40 -63 -43
-23 -57 -15 -77 40 -17 47 -2 66 27 37 l20 -20 23 24 c35 37 51 31 47 -18z
m-161 -24 c12 -19 11 -24 -4 -43 -17 -21 -19 -21 -56 -6 -66 28 -64 72 3 71
32 -1 46 -6 57 -22z m233 7 c0 -40 -13 -81 -26 -81 -16 0 -18 37 -4 74 11 30
30 35 30 7z m-1706 -57 c8 -31 -2 -66 -17 -61 -14 4 -30 54 -23 72 9 24 33 17
40 -11z m2496 -58 c0 -28 -17 -43 -32 -28 -7 7 -6 17 1 31 16 28 31 27 31 -3z
m-5098 -291 c15 -27 28 -63 28 -78 0 -16 17 -54 40 -87 22 -32 40 -65 40 -72
0 -7 -9 -32 -20 -55 l-19 -43 21 3 c37 4 31 -21 -13 -52 -41 -31 -69 -39 -69
-22 0 5 7 14 15 21 12 10 13 16 4 26 -6 8 -15 14 -20 14 -4 0 -20 5 -36 12
-15 6 -32 10 -37 9 -4 -1 -14 3 -21 9 -17 14 -79 18 -83 5 -1 -5 23 -13 55
-17 58 -8 80 -19 69 -36 -4 -7 -147 -16 -231 -14 -37 1 -85 14 -85 23 0 5 -13
9 -29 9 -45 0 -44 13 4 60 24 24 49 55 55 70 6 15 28 36 48 48 52 30 91 69 97
97 3 14 7 35 10 48 7 36 29 58 65 67 66 16 83 9 112 -45z m1580 20 c6 -13 14
-22 19 -20 4 3 10 1 14 -5 3 -5 0 -10 -8 -10 -7 0 -23 -28 -36 -65 -37 -105
-48 -101 -45 18 1 56 3 103 3 105 1 1 10 2 21 2 12 0 25 -10 32 -25z m-1853 6
c20 -13 6 -41 -21 -41 -39 0 -52 14 -33 34 18 18 33 20 54 7z m2763 -37 c4
-21 7 -74 7 -116 1 -63 -2 -78 -14 -78 -25 0 -40 44 -26 77 12 30 1 91 -20
104 -14 8 19 61 35 56 6 -2 14 -21 18 -43z m-1069 -10 c7 -7 -14 -44 -25 -44
-5 0 -8 8 -8 18 0 27 18 41 33 26z m-1735 -31 c-2 -10 -13 -19 -26 -21 -17 -3
-22 2 -22 17 0 16 6 21 26 21 19 0 25 -5 22 -17z m986 -70 c39 -41 50 -70 13
-35 -13 12 -28 22 -33 22 -17 0 -54 31 -49 41 11 18 33 9 69 -28z m-1074 7 c0
-11 -7 -20 -15 -20 -8 0 -15 9 -15 20 0 11 7 20 15 20 8 0 15 -9 15 -20z
m5125 -20 c7 -21 -10 -60 -25 -60 -6 0 -10 18 -10 40 0 43 23 57 35 20z
m-4077 -62 c18 -18 14 -46 -9 -58 -36 -20 -233 -80 -261 -80 -35 0 -35 16 -3
60 39 53 81 74 160 81 38 3 77 6 86 7 8 1 20 -3 27 -10z m4132 5 c0 -5 -5 -15
-10 -23 -9 -13 -11 -13 -20 0 -15 22 -12 30 10 30 11 0 20 -3 20 -7z m-2070
-107 c0 -8 -4 -17 -9 -21 -12 -7 -24 12 -16 25 9 15 25 12 25 -4z m-185 -25
c3 -5 1 -12 -5 -16 -5 -3 -10 1 -10 9 0 18 6 21 15 7z m-2645 -224 c-54 -50
-73 -55 -78 -20 -4 27 121 110 127 84 2 -9 -18 -35 -49 -64z m4408 -29 c17
-24 42 -54 56 -67 48 -45 22 -74 -35 -39 -75 45 -108 93 -89 129 16 30 36 23
68 -23z m-3452 -20 c85 -26 233 -28 309 -4 68 21 83 20 87 -6 2 -16 10 -23 26
-23 34 -1 59 -40 77 -121 13 -58 14 -83 6 -130 -6 -32 -11 -59 -11 -61 0 -7
-82 -2 -161 11 -168 27 -446 113 -488 150 -9 8 -52 28 -96 45 -44 17 -98 43
-120 58 l-40 27 35 8 c19 4 89 21 155 37 66 16 127 30 136 30 9 1 48 -9 85
-21z m-606 -73 c7 -8 23 -15 35 -15 12 0 58 -16 101 -36 43 -20 117 -51 164
-69 47 -18 139 -53 205 -78 173 -66 345 -113 459 -126 55 -5 104 -15 109 -20
11 -11 -22 -111 -38 -118 -35 -13 -538 132 -688 198 -50 23 -112 49 -137 58
-80 29 -149 70 -165 99 -9 15 -14 19 -11 10 7 -22 7 -22 -40 -2 -65 27 -144
78 -144 92 0 10 6 12 18 6 9 -4 36 -9 60 -12 34 -3 42 -1 42 12 0 20 14 21 30
1z m2720 -80 c0 -8 -4 -15 -10 -15 -5 0 -10 7 -10 15 0 8 5 15 10 15 6 0 10
-7 10 -15z m-2828 -50 c40 -20 59 -36 63 -54 4 -17 9 -21 14 -13 4 7 15 10 24
6 9 -3 14 -10 11 -15 -3 -5 1 -9 10 -9 8 0 85 -34 171 -75 87 -41 169 -75 184
-75 14 0 76 -18 136 -39 61 -21 198 -60 305 -86 107 -26 198 -49 202 -51 3 -2
4 -14 1 -25 -5 -19 -11 -21 -52 -15 -118 16 -281 63 -576 166 -189 66 -327
120 -338 131 -11 12 -26 18 -37 14 -24 -7 -228 83 -241 107 -6 12 -21 18 -42
18 -30 0 -67 15 -57 23 13 10 137 33 150 27 8 -3 41 -19 72 -35z m-392 20 c-7
-8 -16 -15 -21 -15 -5 0 -9 7 -9 15 0 9 9 15 21 15 18 0 19 -2 9 -15z m24 -40
c-5 -21 -3 -25 15 -25 30 0 119 -50 136 -77 9 -13 21 -23 28 -23 6 0 3 7 -7
15 -17 13 -17 15 -4 15 9 0 20 -4 23 -10 3 -5 13 -10 21 -10 9 0 63 -21 122
-46 165 -71 713 -250 921 -301 102 -25 188 -47 190 -49 3 -2 -37 -128 -45
-142 -2 -5 -98 35 -336 139 -125 54 -307 131 -405 170 -98 39 -185 78 -194 85
-8 8 -25 14 -36 14 -23 0 -160 58 -328 140 -66 32 -128 60 -138 64 -17 6 -17
8 3 36 26 36 43 39 34 5z m3716 -55 c0 -5 -15 -16 -32 -24 -18 -8 -48 -26 -67
-40 -33 -25 -91 -36 -91 -18 0 13 35 42 56 47 11 3 44 14 74 24 66 24 60 23
60 11z m34 -53 c6 -15 8 -29 5 -31 -2 -2 -29 -1 -59 3 l-55 7 40 26 c47 31 57
31 69 -5z m-29 -67 c0 -17 -113 -47 -139 -37 -20 8 -10 36 18 47 35 15 121 8
121 -10z m220 -39 c49 9 50 9 88 -31 36 -37 39 -43 33 -81 -7 -42 -56 -138
-82 -160 -11 -9 -12 -14 -3 -20 9 -5 2 -19 -24 -48 -47 -53 -67 -92 -74 -149
l-5 -47 -49 3 c-27 2 -49 7 -49 11 0 4 13 20 29 35 16 15 43 49 61 74 l33 47
-59 -57 c-32 -31 -88 -70 -123 -88 l-63 -31 -50 55 c-27 31 -56 56 -64 56 -8
0 -17 7 -20 15 -4 9 -26 27 -50 41 -39 23 -46 33 -59 82 -9 32 -22 72 -30 90
-24 52 -19 78 15 92 16 7 59 32 96 56 37 24 74 42 83 39 9 -2 38 2 65 10 27 8
72 15 100 15 28 1 62 7 76 15 23 12 27 11 50 -10 23 -21 29 -23 75 -14z m465
11 c0 -9 -12 -35 -27 -57 -15 -22 -69 -116 -119 -209 l-92 -169 -7 59 c-4 33
-8 64 -9 69 -2 6 3 30 10 55 8 25 14 84 14 132 0 57 4 89 12 94 15 9 164 42
196 43 15 1 22 -5 22 -17z m898 2 c27 -19 26 -52 -1 -68 -15 -9 -22 -7 -34 12
-15 22 -46 28 -77 16 -26 -10 -18 -24 14 -24 60 0 28 -31 -50 -49 -34 -7 -46
-6 -57 5 -8 8 -32 14 -53 14 -66 0 -90 21 -55 50 17 14 111 37 200 49 89 12
89 12 113 -5z m-2168 -116 c0 -4 -5 -8 -10 -8 -6 0 -8 -11 -4 -25 4 -16 2 -25
-6 -25 -6 0 -25 -9 -40 -20 -16 -11 -35 -18 -42 -15 -8 3 -20 -1 -27 -9 -31
-37 -254 -86 -382 -85 -69 1 -81 4 -94 22 -13 19 -13 23 3 40 9 11 17 31 17
46 0 22 4 26 27 24 19 -1 29 4 33 17 4 13 16 18 43 18 82 2 215 18 315 39 41
9 167 -6 167 -19z m-666 -147 c17 -27 -26 -60 -51 -40 -11 10 -11 15 3 30 18
20 39 25 48 10z m711 -11 c3 -11 3 -25 -2 -32 -4 -7 -8 -42 -8 -77 0 -81 -18
-91 -39 -22 -11 38 -12 59 -4 88 16 61 41 81 53 43z m1951 -21 c16 -15 30 -20
47 -15 33 8 63 -16 93 -75 24 -48 24 -51 8 -79 -29 -49 -54 -55 -126 -35 -35
9 -79 25 -98 35 -19 10 -54 21 -78 25 -23 4 -55 17 -70 30 -15 12 -42 30 -59
39 -33 17 -45 50 -20 59 6 2 39 2 73 -1 53 -4 65 -1 100 22 46 31 94 29 130
-5z m-1065 -97 c-19 -65 -69 -144 -113 -180 -41 -33 -66 95 -32 161 9 17 28
40 42 52 33 27 105 55 116 45 5 -5 -1 -39 -13 -78z m-2301 8 c13 -8 11 -20
-14 -87 -15 -43 -37 -109 -48 -148 -10 -38 -30 -95 -44 -125 -14 -30 -39 -98
-56 -150 -42 -131 -75 -203 -90 -197 -15 5 -15 4 0 107 6 41 16 119 22 173 6
62 18 113 31 139 16 31 20 52 16 83 -6 44 -1 58 25 68 10 3 19 23 23 49 4 24
15 51 24 62 29 33 81 45 111 26z m2298 -206 c-18 -24 -38 -44 -44 -44 -6 0
-21 11 -33 24 l-23 25 34 43 c20 24 48 66 64 93 l29 50 3 -73 c3 -70 1 -76
-30 -118z m852 76 c41 -5 107 -16 145 -24 39 -8 86 -16 105 -18 23 -2 35 -8
35 -18 0 -11 -13 -15 -56 -16 -31 0 -60 -4 -66 -7 -6 -4 -36 -2 -68 4 -31 6
-59 8 -62 5 -6 -5 54 -23 136 -40 65 -13 84 -35 56 -66 -11 -13 -18 -33 -17
-51 1 -17 -3 -30 -10 -31 -15 -1 -50 -3 -120 -6 -56 -2 -63 -19 -18 -45 17
-10 30 -24 30 -32 0 -21 -40 -45 -76 -45 -40 0 -43 -4 -30 -45 10 -32 14 -35
48 -35 34 0 38 -3 38 -25 0 -25 -23 -35 -35 -15 -3 6 -17 10 -31 10 -21 0 -24
-5 -26 -37 0 -21 0 -50 1 -64 2 -24 -3 -27 -52 -37 -30 -6 -64 -8 -76 -5 -14
3 -23 0 -27 -11 -3 -9 -15 -16 -25 -16 -10 0 -19 -4 -19 -8 0 -5 -6 -17 -14
-27 -12 -17 -16 -17 -30 -6 -14 12 -23 11 -59 -7 -24 -12 -68 -27 -98 -33
-158 -32 -269 -65 -269 -79 0 -3 43 -14 96 -22 104 -17 119 -24 90 -42 -11 -6
-33 -23 -50 -37 -49 -41 -85 -56 -174 -68 -45 -7 -97 -17 -115 -24 -30 -11
-26 -12 61 -18 50 -3 95 -9 99 -13 4 -3 -1 -14 -10 -23 -11 -12 -43 -18 -106
-23 -50 -4 -94 -9 -97 -13 -9 -8 5 -27 20 -27 8 0 19 -7 26 -15 11 -13 9 -20
-13 -43 -32 -33 -34 -42 -9 -42 11 0 27 -9 37 -20 10 -11 34 -23 54 -26 43 -8
61 -21 61 -44 0 -9 8 -28 19 -41 10 -13 21 -45 25 -70 4 -26 22 -70 41 -100
19 -30 35 -61 35 -70 0 -9 14 -35 31 -58 30 -42 39 -76 57 -207 6 -45 4 -72
-6 -100 -15 -44 -10 -130 12 -192 8 -21 17 -62 21 -92 4 -30 12 -64 18 -75 6
-11 12 -29 14 -40 9 -56 32 -153 42 -178 15 -38 9 -190 -8 -211 -13 -15 -16
-15 -36 4 -36 34 -58 22 -35 -20 30 -57 -110 -3 -163 63 -19 23 -39 37 -54 37
-29 0 -31 -26 -3 -55 l20 -22 -20 -44 c-11 -24 -20 -63 -20 -86 0 -32 -5 -46
-22 -57 -28 -20 -77 -21 -103 -2 -11 7 -58 26 -105 41 -47 14 -107 36 -135 47
-27 11 -88 36 -134 54 -120 48 -158 89 -109 115 26 14 108 6 140 -15 13 -8 54
-18 92 -21 38 -4 81 -14 95 -21 14 -8 46 -14 71 -14 80 0 120 -11 120 -31 0
-10 -4 -21 -10 -24 -5 -3 -10 -19 -10 -34 0 -15 -5 -32 -12 -39 -9 -9 -9 -15
-1 -23 19 -19 72 8 79 40 3 14 12 49 20 78 14 47 13 89 -3 147 -3 11 -1 16 5
12 15 -9 39 31 46 74 5 32 18 196 17 230 0 69 -47 242 -86 316 -7 15 -17 45
-20 66 -4 21 -22 64 -41 95 -19 31 -34 69 -34 84 0 32 -14 67 -47 121 -13 21
-23 43 -23 49 0 26 -53 119 -71 124 -15 5 -19 16 -19 48 0 37 5 46 42 79 31
27 38 37 25 38 -10 0 -29 -7 -42 -16 -29 -19 -64 -15 -79 8 -13 22 15 54 55
63 59 13 22 39 -42 29 -36 -6 -40 -4 -56 25 -14 25 -23 30 -41 26 -44 -11
-112 42 -112 87 0 57 24 93 75 112 47 18 47 19 41 57 -4 25 -1 52 8 73 8 19
12 37 9 39 -10 11 19 47 37 47 39 0 182 85 236 140 78 80 90 99 76 121 -7 10
-12 25 -12 32 0 23 52 64 110 87 82 33 85 35 82 62 -2 20 8 35 44 67 52 46 56
47 74 26 19 -22 67 -18 93 8 12 12 25 21 29 20 3 -1 12 4 18 12 9 11 9 15 1
15 -27 0 -7 18 32 29 23 7 59 24 79 38 21 14 51 28 68 32 44 9 38 25 -12 34
-77 14 -90 18 -83 25 10 11 146 30 175 25 14 -2 59 -8 100 -13z m-320 -14 c0
-11 -19 -15 -25 -6 -3 5 1 10 9 10 9 0 16 -2 16 -4z m-1142 -55 c2 -12 -7 -43
-21 -69 -13 -26 -30 -64 -36 -85 -10 -30 -19 -39 -42 -44 -41 -8 -52 -24 -39
-59 23 -59 -6 -69 -69 -24 -41 30 -41 31 -25 55 9 14 25 25 35 25 13 0 23 15
35 54 12 39 34 72 75 117 58 62 81 70 87 30z m-172 -12 c3 -6 1 -16 -4 -21
-13 -13 -45 8 -36 23 7 12 31 11 40 -2z m-81 -9 c-3 -5 -11 -10 -16 -10 -6 0
-7 5 -4 10 3 6 11 10 16 10 6 0 7 -4 4 -10z m26 -40 c27 -15 24 -39 -8 -51
-30 -11 -43 0 -43 39 0 24 19 29 51 12z m454 -616 c5 -7 21 -14 35 -16 32 -4
32 -28 -1 -47 -50 -28 -111 16 -94 68 5 17 12 20 28 15 12 -4 26 -13 32 -20z
m-85 -29 c0 -8 14 -30 31 -50 l32 -36 -57 -52 c-45 -43 -56 -58 -56 -84 0 -18
-4 -35 -10 -38 -5 -3 -10 -19 -10 -35 0 -36 -14 -45 -41 -27 l-20 15 21 20
c18 16 19 22 8 29 -19 11 -42 69 -34 88 6 18 36 20 36 3 0 -6 3 -9 6 -5 4 3
-3 18 -15 33 -11 15 -21 37 -21 50 0 23 55 84 76 84 6 0 17 7 24 15 14 17 30
11 30 -10z m-424 -442 c12 -32 29 -83 39 -113 25 -82 101 -223 160 -298 51
-65 217 -218 256 -236 10 -5 19 -13 19 -18 0 -11 2 -12 -70 26 -64 33 -217
183 -273 268 -71 108 -120 210 -143 301 -13 50 -24 99 -24 109 0 34 15 18 36
-39z m-1451 -73 c0 -8 -8 -16 -17 -18 -13 -2 -18 3 -18 18 0 15 5 20 18 18 9
-2 17 -10 17 -18z m6863 -515 c27 -15 52 -23 65 -19 17 4 29 -5 55 -37 26 -35
32 -39 32 -21 0 38 22 36 62 -6 29 -32 37 -47 33 -65 -4 -16 1 -29 21 -47 26
-25 27 -25 15 -2 -24 45 -5 43 48 -4 54 -49 57 -48 34 12 -8 22 18 26 39 7 21
-18 21 -18 9 4 -13 25 -1 38 27 29 22 -7 118 -104 110 -111 -3 -3 -22 2 -42
11 -19 10 -39 15 -42 11 -4 -3 11 -32 32 -64 34 -50 39 -66 39 -113 0 -54 0
-55 30 -55 27 0 30 3 31 30 1 84 11 94 46 50 24 -30 35 -31 43 -5 3 11 15 20
25 20 15 0 20 10 25 48 4 26 8 53 11 60 8 26 39 7 76 -47 49 -69 74 -135 62
-161 -8 -19 -11 -18 -49 18 -87 84 -138 82 -80 -3 18 -28 23 -44 18 -68 -3
-18 -8 -34 -10 -37 -10 -11 -39 21 -53 60 -18 50 -30 53 -45 8 -9 -28 -15 -33
-38 -30 -32 3 -32 3 -12 -34 8 -16 15 -39 15 -51 0 -21 -5 -23 -49 -23 -28 0
-52 4 -55 9 -3 5 -15 7 -26 4 -32 -8 -24 23 10 44 34 20 36 26 15 43 -8 7 -19
29 -25 50 -10 36 -45 79 -56 68 -3 -4 4 -25 16 -48 13 -25 18 -46 13 -51 -14
-14 -88 44 -119 91 -15 22 -28 39 -30 37 -6 -6 17 -69 45 -124 25 -52 24 -77
-3 -54 -7 6 -20 26 -27 44 -6 18 -22 46 -34 62 -12 17 -30 45 -39 63 -14 28
-22 33 -41 28 -20 -5 -27 0 -42 26 l-17 33 -14 -37 c-8 -21 -18 -38 -23 -38
-16 0 -38 44 -33 67 5 18 1 25 -19 32 -14 6 -33 24 -43 40 -22 37 -30 39 -38
9 -6 -22 -9 -20 -51 27 -28 31 -50 68 -59 99 -15 49 -15 51 12 93 15 24 34 43
42 43 8 0 35 -11 58 -25z m-328 -80 c22 -11 30 -23 30 -42 0 -15 7 -35 17 -45
9 -10 12 -18 6 -18 -11 0 -93 98 -93 111 0 12 7 11 40 -6z m970 -49 c0 -3 -4
-8 -10 -11 -5 -3 -10 -1 -10 4 0 6 5 11 10 11 6 0 10 -2 10 -4z m-780 -66 c0
-5 -4 -10 -10 -10 -5 0 -10 5 -10 10 0 6 5 10 10 10 6 0 10 -4 10 -10z m-4400
-137 c67 -139 98 -234 106 -322 6 -58 4 -71 -8 -71 -9 0 -18 21 -26 68 -6 37
-41 145 -77 241 -69 184 -71 191 -55 191 5 0 32 -48 60 -107z m5448 1 c38 -43
72 -105 72 -132 0 -10 7 -27 16 -38 15 -18 15 -18 9 11 -4 17 -17 56 -30 88
-12 31 -21 57 -20 57 2 0 11 -3 20 -6 34 -13 145 -217 145 -267 0 -13 4 -27 9
-32 14 -14 24 -137 13 -153 -8 -12 -15 -11 -41 2 -27 14 -31 22 -31 57 0 23
-7 47 -15 55 -10 10 -15 35 -15 73 0 35 -6 65 -15 77 -14 18 -14 17 -15 -13 0
-23 -5 -33 -15 -33 -11 0 -15 11 -15 41 0 35 -10 53 -70 131 -42 55 -70 100
-70 115 0 19 3 22 18 14 9 -5 32 -26 50 -47z m37 16 c3 -5 1 -10 -4 -10 -6 0
-11 5 -11 10 0 6 2 10 4 10 3 0 8 -4 11 -10z m-1862 -145 c41 -8 28 -29 -21
-33 -33 -3 -44 1 -49 15 -4 10 -11 21 -16 24 -5 4 -7 12 -3 17 4 7 15 6 34 -3
15 -8 40 -17 55 -20z m177 -52 c0 -20 -22 -15 -55 12 -30 25 -30 25 -10 40 19
15 22 14 42 -12 13 -15 23 -34 23 -40z m-30 -42 c0 -14 -18 -23 -30 -16 -6 4
-8 11 -5 16 8 12 35 12 35 0z m-185 -11 c10 -16 -24 -62 -43 -58 -21 4 -28 34
-12 53 14 17 46 20 55 5z m-2085 -4 c0 -18 -15 -36 -31 -36 -22 0 -24 6 -6 25
11 13 37 21 37 11z m125 -5 c7 -12 -25 -30 -42 -24 -7 2 -9 11 -6 19 6 16 39
19 48 5z m3725 -65 c0 -12 -40 -56 -51 -56 -5 0 -15 13 -23 29 -14 27 -14 31
5 56 l21 26 24 -22 c13 -12 24 -27 24 -33z m186 -28 c8 -18 22 -44 29 -58 8
-14 15 -36 15 -48 l0 -24 -32 19 c-20 11 -33 27 -33 39 0 10 -8 26 -18 34 -16
13 -17 19 -6 43 16 35 27 34 45 -5z m-466 -32 c-15 -15 -34 9 -26 31 7 17 8
17 22 -1 9 -13 11 -23 4 -30z m370 19 c13 -14 22 -26 19 -26 -2 -1 -16 -3 -31
-5 -25 -2 -28 0 -28 27 0 36 9 37 40 4z m-229 5 c5 0 9 -9 9 -20 0 -23 -18
-26 -45 -7 -21 16 -11 42 12 33 8 -3 19 -6 24 -6z m544 -62 c25 -53 32 -112
16 -136 -13 -22 -27 6 -44 87 -13 66 -14 101 0 101 2 0 15 -24 28 -52z m-447
-16 c2 -7 -3 -12 -12 -12 -9 0 -16 7 -16 16 0 17 22 14 28 -4z m-5273 -2 c3
-5 1 -10 -4 -10 -6 0 -11 5 -11 10 0 6 2 10 4 10 3 0 8 -4 11 -10z m56 -26
c12 -14 11 -16 -5 -13 -11 2 -21 10 -24 17 -5 17 13 15 29 -4z m3239 -15 c0
-12 -27 -11 -35 1 -11 17 5 32 21 19 8 -6 14 -15 14 -20z m-480 11 c0 -5 -5
-10 -11 -10 -5 0 -7 5 -4 10 3 6 8 10 11 10 2 0 4 -4 4 -10z m-35 -14 c18 -13
18 -15 2 -40 -23 -34 -43 -33 -55 3 -16 45 14 66 53 37z m2576 -62 c11 -13 8
-19 -17 -39 -23 -18 -33 -21 -48 -13 -18 10 -18 12 -3 23 9 7 17 20 17 29 0
21 33 21 51 0z m431 -126 c8 -21 -12 -80 -25 -75 -7 2 -13 22 -15 45 -3 36 0
42 16 42 11 0 22 -6 24 -12z m-391 -29 c19 -19 20 -23 5 -37 -14 -14 -17 -14
-36 3 -23 21 -27 55 -5 55 8 0 24 -9 36 -21z m-5088 -18 c5 -22 -1 -33 -14
-25 -12 7 -12 44 0 44 5 0 11 -9 14 -19z m-70 -27 c18 -9 35 -22 39 -27 4 -8
15 -7 33 1 37 17 65 7 65 -23 0 -25 -33 -51 -50 -40 -6 3 -11 0 -11 -7 -1 -7
-2 -20 -3 -28 -1 -19 -43 -25 -62 -9 -13 10 -12 14 3 31 17 19 16 21 -25 55
-63 52 -56 81 11 47z m-4515 -185 c3 -16 -18 -39 -79 -89 -48 -39 -89 -40 -70
-1 5 9 14 27 20 41 26 55 121 91 129 49z m-187 -173 c9 -19 7 -30 -16 -64 -15
-22 -33 -43 -41 -46 -17 -7 -74 20 -74 34 0 17 86 100 104 100 9 0 21 -11 27
-24z m10202 -40 c20 -15 30 -56 31 -123 1 -84 -32 -65 -67 40 -13 40 -22 78
-20 85 6 16 33 15 56 -2z m-6663 -276 c13 -9 12 -12 -4 -25 -28 -21 -36 -19
-36 10 0 26 15 32 40 15z m6847 -116 c-9 -9 -28 6 -21 18 4 6 10 6 17 -1 6 -6
8 -13 4 -17z m73 -159 c0 -15 -6 -25 -14 -25 -16 0 -25 19 -18 38 8 22 32 13
32 -13z m-210 -46 c0 -24 -23 -21 -28 4 -2 10 3 17 12 17 10 0 16 -9 16 -21z
m155 -72 c19 -35 35 -72 35 -81 0 -9 7 -28 16 -41 15 -24 15 -25 -3 -25 -22 0
-39 16 -87 81 -39 52 -43 64 -33 102 12 43 33 32 72 -36z m-1720 -148 c4 -6
-3 -21 -16 -35 l-22 -24 32 -6 c27 -6 36 -15 52 -51 22 -52 24 -79 7 -90 -30
-18 -49 -8 -73 41 -6 11 -20 22 -32 24 -35 5 -47 27 -29 54 9 12 16 29 16 38
0 39 49 76 65 49z m-8862 -120 c-3 -177 -17 -237 -43 -188 -23 42 6 275 33
266 8 -2 12 -28 10 -78z m10653 -24 c54 -56 67 -91 38 -102 -27 -10 -141 114
-130 142 10 27 37 15 92 -40z m-1668 -47 c7 -7 12 -28 12 -48 0 -41 -14 -60
-45 -60 -17 0 -20 6 -19 48 1 68 21 91 52 60z m72 -49 c0 -6 -4 -7 -10 -4 -5
3 -10 11 -10 16 0 6 5 7 10 4 6 -3 10 -11 10 -16z m1710 -25 c0 -8 -4 -12 -10
-9 -5 3 -10 10 -10 16 0 5 5 9 10 9 6 0 10 -7 10 -16z m10 -128 c0 -11 -19
-15 -25 -6 -3 5 1 10 9 10 9 0 16 -2 16 -4z m-8359 -119 c-15 -40 -14 -105 5
-180 13 -55 14 -70 3 -83 -24 -29 -52 -13 -72 41 -22 58 -19 91 16 172 14 32
28 67 31 77 5 13 10 16 17 9 6 -6 6 -18 0 -36z m84 -87 c16 -17 16 -24 6 -48
l-13 -27 -19 24 c-19 23 -25 52 -12 64 10 11 19 8 38 -13z m-99 -266 c14 -37
-3 -148 -29 -188 -23 -35 -75 -66 -109 -66 -34 0 -35 10 -4 63 13 23 30 75 37
114 7 40 21 87 31 104 18 29 20 30 41 16 12 -8 26 -27 33 -43z m7387 -122 c25
-34 29 -47 21 -60 -6 -9 -15 -16 -20 -16 -17 3 -43 49 -50 88 -9 50 7 46 49
-12z m-9453 -34 c0 -25 -4 -29 -22 -26 -27 3 -36 41 -17 64 17 21 39 -1 39
-38z m170 0 c0 -7 -7 -35 -15 -62 -27 -90 -61 -120 -85 -75 -17 31 -1 79 39
116 37 34 61 42 61 21z m9203 -94 c19 -38 15 -74 -7 -74 -24 0 -66 41 -66 64
0 54 49 61 73 10z m-9119 -41 c2 -10 7 -40 10 -68 6 -48 5 -51 -27 -71 -39
-24 -57 -21 -57 11 0 12 -7 28 -15 35 -22 18 -19 35 16 75 34 38 65 45 73 18z
m96 -23 c0 -5 -4 -10 -10 -10 -5 0 -10 5 -10 10 0 6 5 10 10 10 6 0 10 -4 10
-10z m1535 -317 c-4 -10 -16 -43 -27 -73 -21 -63 -33 -79 -49 -63 -14 14 48
153 68 153 11 0 13 -5 8 -17z m-75 -193 c0 -5 -5 -10 -11 -10 -5 0 -7 5 -4 10
3 6 8 10 11 10 2 0 4 -4 4 -10z m-325 -1025 c0 -28 -29 -25 -33 3 -3 19 0 23
15 20 10 -2 18 -12 18 -23z m7983 13 c14 -14 16 -54 4 -62 -11 -7 -52 31 -52
48 0 27 27 35 48 14z m-8392 -350 c4 -6 -1 -17 -11 -25 -24 -17 -34 -17 -42 3
-10 26 38 47 53 22z m-20 -59 c50 2 58 -18 30 -75 -31 -63 -41 -71 -96 -76
-43 -3 -45 -2 -48 26 -5 37 3 63 28 104 15 25 25 32 38 27 9 -4 31 -7 48 -6z
m8014 -6 c-1 -10 -7 -29 -15 -43 -8 -14 -14 -48 -15 -77 0 -57 -19 -80 -52
-62 -14 8 -18 23 -18 73 0 61 2 66 35 95 40 35 65 40 65 14z m-3351 -22 c34
-9 37 -26 8 -55 -16 -16 -32 -22 -48 -19 -19 3 -35 -5 -68 -37 -34 -33 -45
-39 -57 -29 -17 14 -18 53 -1 67 6 6 29 13 50 17 31 6 37 11 32 26 -4 10 -3
23 0 29 7 11 47 12 84 1z"/>
<path d="M6893 12963 c2 -41 14 -50 41 -30 16 12 16 14 -4 40 -29 37 -40 34
-37 -10z"/>
<path d="M6943 12913 c-38 -7 -26 -35 48 -108 39 -38 75 -78 80 -87 14 -26 27
-22 34 12 5 23 1 37 -21 66 -15 20 -38 40 -51 45 -15 5 -23 17 -23 32 0 25
-17 48 -34 46 -6 -1 -21 -4 -33 -6z"/>
<path d="M7790 11946 c0 -4 7 -36 16 -70 16 -64 34 -95 34 -60 0 11 6 26 13
33 10 10 8 15 -9 29 -12 9 -29 31 -37 47 -9 17 -16 26 -17 21z"/>
<path d="M7160 11886 c0 -8 4 -17 9 -20 15 -10 23 -106 10 -143 -9 -28 -8 -37
5 -52 14 -15 24 -16 80 -8 l64 10 -5 41 c-3 23 -12 48 -19 57 -8 8 -14 21 -14
27 0 23 -83 102 -107 102 -13 0 -23 -6 -23 -14z"/>
<path d="M7702 11880 c0 -14 2 -19 5 -12 2 6 2 18 0 25 -3 6 -5 1 -5 -13z"/>
<path d="M6849 11799 c-23 -48 -28 -64 -18 -70 29 -17 65 23 69 76 5 76 -10
74 -51 -6z"/>
<path d="M7488 10459 c-27 -15 -21 -26 12 -21 39 6 63 32 29 32 -13 0 -32 -5
-41 -11z"/>
<path d="M7394 10425 c-17 -13 -17 -14 -2 -15 9 0 20 5 23 11 11 17 0 20 -21
4z"/>
<path d="M7750 9612 c-14 -9 -26 -20 -28 -24 -2 -4 -10 -4 -18 -1 -11 4 -14
-4 -14 -33 l0 -38 38 40 c70 74 78 94 22 56z"/>
<path d="M7416 9335 c-3 -8 -1 -15 4 -15 6 0 10 7 10 15 0 8 -2 15 -4 15 -2 0
-6 -7 -10 -15z"/>
<path d="M7370 9300 c-8 -5 -11 -12 -8 -16 10 -9 38 3 38 16 0 12 -10 13 -30
0z"/>
<path d="M7238 9182 c-78 -58 -248 -230 -248 -252 0 -19 26 -8 71 30 49 41
279 268 279 275 0 15 -34 -2 -102 -53z"/>
<path d="M8222 8798 c-15 -15 -16 -64 -1 -73 5 -4 18 0 28 9 10 9 21 13 24 9
4 -3 7 6 7 20 0 16 -8 30 -19 37 -24 13 -24 13 -39 -2z"/>
<path d="M8062 8758 c-16 -16 -15 -28 3 -28 8 0 15 9 15 20 0 23 -2 24 -18 8z"/>
<path d="M6500 13016 c0 -14 58 -66 73 -66 19 0 3 32 -26 54 -39 30 -47 32
-47 12z"/>
<path d="M5658 12991 c-63 -40 -100 -91 -96 -132 5 -52 29 -58 77 -20 44 35
47 51 6 43 -45 -8 -30 32 33 87 63 56 52 68 -20 22z"/>
<path d="M6680 12990 c0 -5 5 -10 10 -10 6 0 10 5 10 10 0 6 -4 10 -10 10 -5
0 -10 -4 -10 -10z"/>
<path d="M6520 12886 c0 -9 5 -16 10 -16 6 0 10 4 10 9 0 6 -4 13 -10 16 -5 3
-10 -1 -10 -9z"/>
<path d="M9925 12170 c-8 -12 20 -24 35 -15 6 3 8 11 5 16 -8 12 -32 12 -40
-1z"/>
<path d="M9643 11073 c9 -2 25 -2 35 0 9 3 1 5 -18 5 -19 0 -27 -2 -17 -5z"/>
<path d="M8825 8260 c3 -5 10 -10 16 -10 5 0 9 5 9 10 0 6 -7 10 -16 10 -8 0
-12 -4 -9 -10z"/>
<path d="M1145 14362 c-71 -27 -87 -36 -154 -92 -79 -66 -121 -122 -294 -395
-114 -178 -144 -232 -134 -241 6 -6 82 -58 167 -116 168 -113 317 -221 503
-361 65 -49 120 -87 121 -85 30 40 273 431 296 478 73 144 105 317 81 430 -35
162 -164 307 -330 371 -79 30 -191 35 -256 11z m222 -171 c34 -18 89 -58 122
-88 149 -134 171 -327 63 -539 -50 -96 -187 -303 -199 -299 -13 4 -611 430
-630 448 -17 17 181 331 259 410 81 82 141 108 243 104 68 -3 89 -8 142 -36z"/>
<path d="M18343 13339 l-43 -20 32 -57 c17 -31 34 -61 38 -65 8 -9 103 30 98
41 -33 69 -64 122 -73 121 -5 0 -29 -9 -52 -20z"/>
<path d="M18060 13213 c-157 -77 -436 -206 -620 -285 -63 -27 -116 -51 -118
-53 -4 -3 55 -123 70 -141 6 -9 30 -1 86 27 175 90 629 302 776 363 l37 15
-35 70 c-20 38 -39 71 -43 73 -5 2 -73 -29 -153 -69z"/>
<path d="M18438 12503 c-57 -53 -150 -142 -208 -197 -58 -56 -185 -174 -282
-264 l-176 -164 33 -91 c33 -91 33 -92 71 -99 325 -58 1047 -202 1079 -214 8
-4 15 -4 15 -1 0 17 -54 148 -64 155 -6 5 -63 16 -126 26 -99 15 -841 152
-862 159 -7 2 259 251 511 477 58 52 123 111 144 130 l38 35 -27 73 c-15 39
-30 72 -35 72 -4 0 -54 -44 -111 -97z"/>
<path d="M19089 10886 c-11 -11 -627 -105 -834 -127 -60 -7 -113 -15 -117 -18
-4 -4 137 -746 142 -746 0 0 23 2 50 3 42 3 50 7 46 20 -27 94 -121 570 -114
577 7 8 341 55 346 50 3 -3 29 -121 57 -263 l52 -257 43 3 c24 2 45 4 46 5 1
1 -20 115 -47 252 -27 138 -49 257 -49 266 0 12 32 20 165 39 91 13 167 21
169 19 5 -5 70 -327 91 -449 9 -52 18 -104 20 -115 4 -19 10 -20 52 -15 26 3
47 10 46 15 -20 123 -146 732 -151 737 -5 5 -10 6 -13 4z"/>
<path d="M18352 9327 l3 -79 446 2 446 1 6 -98 c4 -54 7 -134 7 -178 -1 -132
-40 -192 -134 -202 -63 -8 -110 12 -155 63 -54 62 -75 127 -75 241 -1 51 -3
93 -5 93 -2 0 -83 -64 -180 -141 -97 -78 -211 -167 -253 -198 l-78 -56 0 -88
c0 -51 4 -87 9 -85 5 2 105 84 221 183 116 99 216 182 221 183 5 2 9 -9 9 -25
0 -40 25 -127 50 -176 84 -162 275 -208 387 -91 50 52 72 116 75 219 2 52 -10
422 -16 499 -1 4 -223 9 -494 10 l-493 1 3 -78z"/>
<path d="M12636 9061 c-9 -14 5 -42 18 -38 15 5 14 39 -1 44 -6 2 -14 0 -17
-6z"/>
<path d="M12400 9040 c0 -5 5 -10 10 -10 6 0 10 5 10 10 0 6 -4 10 -10 10 -5
0 -10 -4 -10 -10z"/>
<path d="M18387 8093 c-3 -5 -18 -57 -33 -118 -37 -141 -41 -323 -9 -420 44
-136 172 -197 289 -138 43 22 128 105 209 203 94 113 166 188 199 206 99 52
187 -32 188 -181 0 -68 -29 -216 -51 -256 -10 -19 -7 -20 48 -17 l58 3 19 80
c12 55 19 124 20 220 1 138 1 141 -30 200 -52 102 -150 148 -248 115 -48 -16
-128 -90 -242 -226 -170 -203 -224 -238 -303 -193 -55 31 -75 75 -79 179 -4
99 14 189 57 285 l30 65 -59 0 c-32 0 -61 -3 -63 -7z"/>
<path d="M18188 6778 c-10 -45 -16 -83 -15 -84 1 -1 101 -25 222 -54 194 -45
562 -138 682 -172 23 -7 45 -9 49 -6 6 7 33 121 34 145 0 6 -26 17 -57 23 -87
18 -376 88 -478 115 -49 14 -157 43 -240 65 -82 23 -157 43 -165 45 -12 4 -19
-13 -32 -77z"/>
<path d="M19236 6513 c-8 -37 -13 -70 -11 -74 3 -4 21 -10 41 -13 19 -4 41 -9
48 -12 9 -4 17 14 25 56 7 34 15 68 17 75 5 11 -61 35 -95 35 -5 0 -16 -30
-25 -67z"/>
<path d="M18880 5848 c-18 -74 -92 -298 -98 -302 -7 -4 -465 169 -696 262
-100 41 -131 50 -138 40 -11 -18 -51 -139 -47 -142 2 -2 54 -20 114 -41 61
-21 232 -85 380 -143 149 -57 285 -109 303 -115 17 -6 32 -17 32 -24 0 -17
-94 -293 -109 -321 -9 -17 -5 -21 32 -36 24 -9 46 -16 49 -16 4 0 60 161 124
358 64 196 127 387 140 424 l24 68 -36 15 c-54 22 -62 19 -74 -27z"/>
<path d="M17427 4574 c-92 -184 -165 -339 -162 -345 4 -5 24 -18 45 -29 l38
-19 17 42 c28 70 238 497 244 497 16 0 306 -170 304 -179 -4 -14 -87 -189
-164 -343 l-69 -138 41 -21 c23 -11 42 -19 44 -17 2 2 55 110 119 241 64 130
118 237 121 237 2 0 27 -13 55 -30 28 -16 53 -30 56 -30 13 0 184 -104 184
-112 0 -5 -59 -127 -132 -270 -105 -209 -128 -262 -117 -269 8 -5 26 -16 42
-25 l27 -15 169 341 c116 234 165 342 157 348 -6 5 -65 37 -131 72 -147 77
-499 275 -618 347 -48 29 -91 53 -95 53 -4 0 -83 -151 -175 -336z"/>
<path d="M16934 3688 c-165 -169 -245 -315 -245 -444 0 -76 17 -120 64 -161
86 -76 170 -69 428 32 174 69 234 83 290 66 111 -33 102 -171 -22 -326 -32
-41 -72 -84 -89 -96 -16 -13 -30 -25 -30 -28 0 -3 21 -17 46 -31 l46 -24 54
60 c195 217 252 415 152 530 -84 95 -161 89 -493 -36 -199 -75 -268 -72 -310
16 -44 93 47 265 210 396 l65 52 -52 28 c-28 15 -52 28 -52 28 -1 0 -29 -28
-62 -62z"/>
<path d="M16177 2693 c-25 -32 -46 -62 -45 -68 0 -5 96 -97 212 -204 116 -106
274 -256 352 -333 l141 -140 57 64 56 63 -33 30 c-199 179 -272 247 -461 429
-120 116 -222 212 -226 214 -3 1 -27 -23 -53 -55z"/>
<path d="M6130 2185 l0 -35 50 0 50 0 0 35 0 35 -50 0 -50 0 0 -35z"/>
<path d="M8320 2185 l0 -35 50 0 50 0 0 35 0 35 -50 0 -50 0 0 -35z"/>
<path d="M10705 2076 c-118 -37 -176 -107 -177 -211 -1 -118 86 -185 240 -185
55 0 66 3 87 26 14 15 25 30 25 33 0 3 -37 6 -83 6 -119 0 -167 36 -169 128
-1 83 60 144 157 154 114 12 195 -67 182 -177 -11 -90 -87 -225 -218 -386 -32
-39 -57 -73 -54 -75 2 -2 31 -2 64 -1 l60 4 70 96 c126 177 192 334 176 421
-17 90 -75 150 -165 170 -60 14 -146 13 -195 -3z"/>
<path d="M11475 2073 c-65 -23 -111 -57 -130 -94 -21 -39 -21 -118 -1 -156 16
-31 65 -73 85 -73 23 0 10 -19 -18 -25 -16 -3 -47 -21 -68 -40 -93 -80 -74
-218 37 -275 58 -30 158 -42 236 -30 140 23 214 92 214 202 0 81 -36 125 -125
153 -17 5 -13 10 26 32 121 66 121 225 0 292 -59 32 -185 39 -256 14z m179
-57 c49 -20 76 -61 76 -112 0 -107 -143 -174 -251 -118 -47 24 -64 61 -60 131
1 29 48 82 86 99 39 17 107 17 149 0z m-10 -317 c82 -23 114 -94 77 -172 -40
-83 -163 -116 -261 -72 -77 35 -102 138 -47 200 42 48 146 68 231 44z"/>
<path d="M12177 2081 c-32 -5 -59 -10 -61 -12 -2 -2 -6 -19 -9 -37 -6 -28 -4
-33 11 -28 87 25 205 32 266 15 48 -13 96 -59 96 -91 0 -61 -103 -183 -342
-406 -64 -59 -78 -78 -78 -102 l0 -30 250 0 250 0 0 30 0 30 -184 0 -185 0
168 168 c139 138 173 179 200 234 27 55 32 73 26 106 -14 85 -89 124 -245 128
-58 1 -131 -1 -163 -5z"/>
<path d="M6120 1973 c0 -115 -16 -456 -25 -535 l-6 -48 55 0 54 0 6 118 c3 64
8 189 11 277 3 88 8 190 11 228 l6 67 -56 0 -56 0 0 -107z"/>
<path d="M6470 2045 l0 -34 210 2 c116 1 210 -1 210 -4 0 -7 -133 -165 -320
-379 -137 -156 -150 -175 -150 -214 l0 -26 275 0 c151 0 278 0 283 0 4 0 7 14
7 31 l0 31 -217 -2 c-120 0 -218 3 -218 7 1 4 106 129 235 278 217 249 235
272 235 307 l0 38 -275 0 -275 0 0 -35z"/>
<path d="M7270 2063 c0 -30 -39 -463 -50 -559 -14 -128 -17 -120 34 -116 l44
4 7 96 c4 54 13 173 21 267 8 93 14 182 14 197 0 15 3 28 8 28 4 0 28 -60 54
-133 50 -141 138 -384 157 -429 10 -26 15 -28 64 -28 l53 0 138 300 c76 165
141 300 143 300 3 0 2 -135 -2 -300 l-8 -300 47 0 46 0 0 138 c0 75 3 230 7
345 l6 207 -74 0 -74 -1 -40 -89 c-70 -156 -230 -489 -235 -490 -3 0 -28 64
-57 143 -28 78 -75 208 -105 289 l-53 148 -72 0 c-63 0 -73 -2 -73 -17z"/>
<path d="M8306 1883 c-4 -109 -11 -263 -17 -342 -5 -79 -8 -145 -6 -148 5 -5
97 -7 101 -2 2 2 9 144 15 314 7 171 14 325 17 343 l6 32 -54 0 -55 0 -7 -197z"/>
<path d="M8680 1953 c0 -132 -15 -432 -26 -515 l-6 -48 55 0 54 0 8 253 c4
138 10 279 14 311 l6 59 35 2 c19 1 77 -1 129 -5 86 -7 97 -10 118 -34 16 -19
23 -40 23 -69 0 -92 -71 -146 -192 -147 -38 0 -68 -2 -68 -5 0 -2 48 -78 108
-168 59 -90 112 -171 117 -181 7 -13 25 -18 68 -19 31 -1 57 -1 57 1 0 2 -51
74 -112 160 -62 86 -111 159 -108 162 3 3 20 7 39 8 78 8 174 80 187 140 3 15
8 33 10 41 9 28 -19 96 -52 127 -46 44 -102 54 -299 54 l-165 0 0 -127z"/>
<path d="M9958 2052 c-44 -25 -48 -30 -48 -65 l0 -39 36 21 c19 12 38 21 42
21 4 0 6 -21 5 -47 -18 -386 -25 -528 -30 -539 -4 -11 7 -14 51 -14 l56 0 0
58 c0 73 17 430 26 545 l7 87 -49 -1 c-34 0 -64 -9 -96 -27z"/>
<path d="M16963 1951 c-24 -28 -43 -54 -43 -58 0 -9 62 -73 71 -73 3 0 27 25
54 56 l48 56 -39 34 c-21 18 -41 33 -44 34 -3 0 -24 -22 -47 -49z"/>
<path d="M9318 1650 c-3 -17 -2 -32 0 -35 3 -3 68 -5 144 -5 l138 0 0 35 0 35
-139 0 -139 0 -4 -30z"/>
</g>
</svg>
